<svg width="100%" height="100%" style="overflow:visible;" preserveAspectRatio="none" viewBox="0 0 7.36 11" fill="none" xmlns="http://www.w3.org/2000/svg">
<path d="M4.2998 1C4.2998 0.723858 4.07595 0.5 3.7998 0.5C3.52366 0.5 3.2998 0.723858 3.2998 1H4.2998ZM3.44625 11.3536C3.64151 11.5488 3.9581 11.5488 4.15336 11.3536L7.33534 8.17157C7.5306 7.97631 7.5306 7.65973 7.33534 7.46447C7.14008 7.2692 6.82349 7.2692 6.62823 7.46447L3.7998 10.2929L0.971378 7.46447C0.776115 7.2692 0.459533 7.2692 0.264271 7.46447C0.0690086 7.65973 0.0690086 7.97631 0.264271 8.17157L3.44625 11.3536ZM3.2998 1V11H4.2998V1H3.2998Z" fill="#EA5329"/>
</svg>
