<svg width="100%" height="100%" style="overflow:visible;" preserveAspectRatio="none" viewBox="0 0 7.36 11" fill="none" xmlns="http://www.w3.org/2000/svg">
<path d="M5.09961 1C5.09961 0.723858 4.87575 0.5 4.59961 0.5C4.32347 0.5 4.09961 0.723858 4.09961 1H5.09961ZM4.24606 11.3536C4.44132 11.5488 4.7579 11.5488 4.95316 11.3536L8.13514 8.17157C8.33041 7.97631 8.33041 7.65973 8.13514 7.46447C7.93988 7.2692 7.6233 7.2692 7.42804 7.46447L4.59961 10.2929L1.77118 7.46447C1.57592 7.2692 1.25934 7.2692 1.06408 7.46447C0.868813 7.65973 0.868813 7.97631 1.06408 8.17157L4.24606 11.3536ZM4.09961 1V11H5.09961V1H4.09961Z" fill="#EA5329"/>
</svg>
