<svg width="100%" height="100%" style="overflow:visible;" preserveAspectRatio="none" viewBox="0 0 7.36 11" fill="none" xmlns="http://www.w3.org/2000/svg">
<path d="M4.7002 1C4.7002 0.723858 4.47634 0.5 4.2002 0.5C3.92405 0.5 3.7002 0.723858 3.7002 1H4.7002ZM3.84664 11.3536C4.0419 11.5488 4.35849 11.5488 4.55375 11.3536L7.73573 8.17157C7.93099 7.97631 7.93099 7.65973 7.73573 7.46447C7.54047 7.2692 7.22388 7.2692 7.02862 7.46447L4.2002 10.2929L1.37177 7.46447C1.17651 7.2692 0.859924 7.2692 0.664661 7.46447C0.469399 7.65973 0.469399 7.97631 0.664661 8.17157L3.84664 11.3536ZM3.7002 1V11H4.7002V1H3.7002Z" fill="#EA5329"/>
</svg>
