<svg width="100%" height="100%" style="overflow:visible;" preserveAspectRatio="none" viewBox="0 0 7.36 11" fill="none" xmlns="http://www.w3.org/2000/svg">
<path d="M4.90039 1C4.90039 0.723858 4.67653 0.5 4.40039 0.5C4.12425 0.5 3.90039 0.723858 3.90039 1H4.90039ZM4.04684 11.3536C4.2421 11.5488 4.55868 11.5488 4.75394 11.3536L7.93592 8.17157C8.13119 7.97631 8.13119 7.65973 7.93592 7.46447C7.74066 7.2692 7.42408 7.2692 7.22882 7.46447L4.40039 10.2929L1.57196 7.46447C1.3767 7.2692 1.06012 7.2692 0.864857 7.46447C0.669595 7.65973 0.669595 7.97631 0.864857 8.17157L4.04684 11.3536ZM3.90039 1V11H4.90039V1H3.90039Z" fill="#EA5329"/>
</svg>
