<svg width="100%" height="100%" style="overflow:visible;" preserveAspectRatio="none" viewBox="0 0 48 48" fill="none" xmlns="http://www.w3.org/2000/svg">
<path d="M24 2.4C24 1.07452 25.0772 -0.0124287 26.396 0.119901C28.7258 0.353661 31.0132 0.927556 33.1844 1.82689C36.0962 3.033 38.742 4.80083 40.9706 7.02944C43.1992 9.25805 44.967 11.9038 46.1731 14.8156C47.3792 17.7274 48 20.8483 48 24C48 27.1517 47.3792 30.2726 46.1731 33.1844C44.967 36.0962 43.1992 38.742 40.9706 40.9706C38.742 43.1992 36.0962 44.967 33.1844 46.1731C31.0132 47.0724 28.7258 47.6463 26.396 47.8801C25.0772 48.0124 24 46.9255 24 45.6C24 44.2745 25.0786 43.2155 26.3938 43.0502C28.0927 42.8367 29.759 42.3965 31.3475 41.7385C33.677 40.7736 35.7936 39.3593 37.5764 37.5765C39.3593 35.7936 40.7736 33.677 41.7385 31.3475C42.7034 29.0181 43.2 26.5214 43.2 24C43.2 21.4786 42.7034 18.9819 41.7385 16.6525C40.7736 14.323 39.3593 12.2064 37.5765 10.4236C35.7936 8.64067 33.677 7.2264 31.3475 6.26151C29.759 5.60352 28.0927 5.16328 26.3938 4.94981C25.0786 4.78455 24 3.72548 24 2.4Z" fill="#00277F"/>
</svg>
