<svg width="100%" height="100%" style="overflow:visible;" preserveAspectRatio="none" viewBox="0 0 48 48" fill="none" xmlns="http://www.w3.org/2000/svg">
<path d="M24.5 2.4C24.5 1.07452 25.5772 -0.0124287 26.896 0.119901C29.2258 0.353661 31.5132 0.927556 33.6844 1.82689C36.5962 3.033 39.242 4.80083 41.4706 7.02944C43.6992 9.25805 45.467 11.9038 46.6731 14.8156C47.8792 17.7274 48.5 20.8483 48.5 24C48.5 27.1517 47.8792 30.2726 46.6731 33.1844C45.467 36.0962 43.6992 38.742 41.4706 40.9706C39.242 43.1992 36.5962 44.967 33.6844 46.1731C31.5132 47.0724 29.2258 47.6463 26.896 47.8801C25.5772 48.0124 24.5 46.9255 24.5 45.6C24.5 44.2745 25.5786 43.2155 26.8938 43.0502C28.5927 42.8367 30.259 42.3965 31.8475 41.7385C34.177 40.7736 36.2936 39.3593 38.0764 37.5765C39.8593 35.7936 41.2736 33.677 42.2385 31.3475C43.2034 29.0181 43.7 26.5214 43.7 24C43.7 21.4786 43.2034 18.9819 42.2385 16.6525C41.2736 14.323 39.8593 12.2064 38.0765 10.4236C36.2936 8.64067 34.177 7.2264 31.8475 6.26151C30.259 5.60352 28.5927 5.16328 26.8938 4.94981C25.5786 4.78455 24.5 3.72548 24.5 2.4Z" fill="#00277F"/>
</svg>
