<svg width="100%" height="100%" style="overflow:visible;" preserveAspectRatio="none" viewBox="0 0 20 20" fill="none" xmlns="http://www.w3.org/2000/svg">
<path d="M12.2121 16.3346C11.9181 16.3346 11.6361 16.2118 11.4282 15.9932L6.99263 11.3323C6.78475 11.1138 6.66797 10.8174 6.66797 10.5085C6.66797 10.1995 6.78475 9.90315 6.99263 9.68464L11.4282 5.0237C11.5304 4.91241 11.6528 4.82364 11.7881 4.76257C11.9234 4.7015 12.0689 4.66936 12.2161 4.66801C12.3634 4.66667 12.5094 4.69615 12.6456 4.75474C12.7819 4.81333 12.9057 4.89985 13.0099 5.00926C13.114 5.11866 13.1963 5.24877 13.2521 5.39197C13.3078 5.53517 13.3359 5.68861 13.3346 5.84333C13.3333 5.99805 13.3027 6.15095 13.2446 6.29311C13.1865 6.43528 13.102 6.56385 12.9961 6.67134L9.34457 10.5085L12.9961 14.3456C13.1511 14.5085 13.2567 14.7161 13.2995 14.9421C13.3422 15.1681 13.3203 15.4024 13.2364 15.6153C13.1525 15.8282 13.0104 16.0101 12.8281 16.1382C12.6458 16.2662 12.4314 16.3346 12.2121 16.3346Z" fill="#6B7280"/>
</svg>
