<svg width="100%" height="100%" style="overflow:visible;" preserveAspectRatio="none" viewBox="0 0 20 20" fill="none" xmlns="http://www.w3.org/2000/svg">
<path d="M7.79047 16.3346C7.57119 16.3346 7.35685 16.2662 7.17454 16.1382C6.99223 16.0101 6.85014 15.8282 6.76623 15.6153C6.68232 15.4024 6.66036 15.1681 6.70313 14.9421C6.74589 14.7161 6.85147 14.5085 7.0065 14.3456L10.658 10.5085L7.0065 6.67134C6.90059 6.56385 6.81611 6.43528 6.758 6.29311C6.69988 6.15095 6.66929 5.99805 6.66801 5.84333C6.66673 5.68861 6.69479 5.53517 6.75054 5.39197C6.8063 5.24877 6.88864 5.11866 6.99275 5.00926C7.09687 4.89985 7.22068 4.81333 7.35695 4.75474C7.49323 4.69615 7.63925 4.66667 7.78648 4.66801C7.93372 4.66936 8.07923 4.7015 8.21452 4.76257C8.3498 4.82364 8.47216 4.91241 8.57445 5.0237L13.01 9.68464C13.2179 9.90315 13.3346 10.1995 13.3346 10.5085C13.3346 10.8174 13.2179 11.1138 13.01 11.3323L8.57445 15.9932C8.36655 16.2118 8.08454 16.3346 7.79047 16.3346Z" fill="#6B7280"/>
</svg>
