<svg width="100%" height="100%" style="overflow:visible;" preserveAspectRatio="none" viewBox="0 0 24 24" fill="none" xmlns="http://www.w3.org/2000/svg">
<path fill-rule="evenodd" clip-rule="evenodd" d="M13.437 5.78398C12.9965 5.54381 12.5028 5.41797 12.001 5.41797C11.4993 5.41797 11.0056 5.54381 10.565 5.78398L5.77003 8.39798C5.29692 8.65614 4.9021 9.03699 4.62706 9.50049C4.35203 9.96399 4.20693 10.493 4.20703 11.032V15.97C4.20693 16.5089 4.35203 17.038 4.62706 17.5015C4.9021 17.965 5.29692 18.3458 5.77003 18.604L10.565 21.218C11.0056 21.4581 11.4993 21.584 12.001 21.584C12.5028 21.584 12.9965 21.4581 13.437 21.218L18.231 18.604C18.7043 18.3459 19.0993 17.9652 19.3746 17.5016C19.6498 17.0381 19.795 16.509 19.795 15.97V11.031C19.795 10.4919 19.6498 9.96282 19.3746 9.49931C19.0993 9.0358 18.7043 8.65501 18.231 8.39698L13.437 5.78398ZM12.001 10.501C11.717 10.501 11.527 10.841 11.147 11.524L11.049 11.7C10.941 11.894 10.887 11.99 10.803 12.054C10.718 12.118 10.613 12.142 10.403 12.189L10.213 12.233C9.47503 12.4 9.10603 12.483 9.01803 12.765C8.93003 13.047 9.18203 13.342 9.68503 13.93L9.81503 14.082C9.95803 14.249 10.03 14.332 10.062 14.436C10.094 14.54 10.083 14.651 10.062 14.874L10.042 15.077C9.96603 15.862 9.92803 16.255 10.157 16.429C10.387 16.603 10.733 16.444 11.424 16.126L11.602 16.044C11.799 15.954 11.897 15.909 12.001 15.909C12.105 15.909 12.203 15.954 12.4 16.044L12.578 16.126C13.269 16.445 13.615 16.603 13.845 16.429C14.075 16.255 14.036 15.862 13.96 15.077L13.94 14.874C13.919 14.651 13.908 14.54 13.94 14.436C13.972 14.332 14.044 14.249 14.187 14.082L14.317 13.93C14.82 13.342 15.072 13.048 14.984 12.765C14.896 12.483 14.527 12.4 13.789 12.233L13.599 12.189C13.389 12.142 13.284 12.119 13.199 12.054C13.115 11.99 13.061 11.894 12.953 11.7L12.855 11.524C12.475 10.842 12.285 10.501 12.001 10.501Z" fill="#767676"/>
<path d="M11 2H13C14.886 2 15.828 2 16.414 2.586C17 3.172 17 4.114 17 6V6.018L14.154 4.466C13.4932 4.10575 12.7526 3.91699 12 3.91699C11.2474 3.91699 10.5068 4.10575 9.846 4.466L7 6.018V6C7 4.114 7 3.172 7.586 2.586C8.172 2 9.114 2 11 2Z" fill="#767676"/>
</svg>
