<svg width="100%" height="100%" style="overflow:visible;" preserveAspectRatio="none" viewBox="0 0 24 24" fill="none" xmlns="http://www.w3.org/2000/svg">
<path fill-rule="evenodd" clip-rule="evenodd" d="M4.42944 8.51193C4.49357 8.43711 4.57181 8.37566 4.6597 8.33109C4.74759 8.28652 4.8434 8.25971 4.94166 8.25219C5.03991 8.24467 5.13869 8.25658 5.23234 8.28725C5.32599 8.31792 5.41267 8.36675 5.48744 8.43093L11.9994 14.0119L18.5114 8.43093C18.6633 8.30906 18.8565 8.25101 19.0504 8.26904C19.2442 8.28707 19.4235 8.37977 19.5502 8.52756C19.677 8.67534 19.7413 8.86662 19.7296 9.06095C19.7179 9.25529 19.631 9.43745 19.4874 9.56894L12.4874 15.5689C12.3515 15.6854 12.1784 15.7494 11.9994 15.7494C11.8205 15.7494 11.6474 15.6854 11.5114 15.5689L4.51144 9.56894C4.36063 9.43945 4.26738 9.25539 4.25219 9.0572C4.23701 8.859 4.30112 8.66289 4.43044 8.51193" fill="#767676"/>
</svg>
