<svg width="100%" height="100%" style="overflow:visible;" preserveAspectRatio="none" viewBox="0 0 24 24" fill="none" xmlns="http://www.w3.org/2000/svg">
<path d="M12.0002 10C13.061 10 14.0785 9.57857 14.8286 8.82843C15.5788 8.07828 16.0002 7.06087 16.0002 6C16.0002 4.93913 15.5788 3.92172 14.8286 3.17157C14.0785 2.42143 13.061 2 12.0002 2C10.9393 2 9.9219 2.42143 9.17175 3.17157C8.42161 3.92172 8.00018 4.93913 8.00018 6C8.00018 7.06087 8.42161 8.07828 9.17175 8.82843C9.9219 9.57857 10.9393 10 12.0002 10ZM8.00018 12.25C6.99002 12.2502 6.01506 12.6211 5.26024 13.2924C4.50542 13.9638 4.02325 14.8888 3.90518 15.892L3.25518 21.412C3.23184 21.6096 3.28795 21.8084 3.41116 21.9646C3.53437 22.1208 3.7146 22.2217 3.91218 22.245C4.10977 22.2683 4.30853 22.2122 4.46475 22.089C4.62097 21.9658 4.72184 21.7856 4.74518 21.588L5.39518 16.068C5.4543 15.5587 5.66157 15.0779 5.99131 14.6852C6.32105 14.2926 6.75875 14.0053 7.25018 13.859V18.052C7.25018 18.951 7.25018 19.7 7.33018 20.294C7.41418 20.922 7.60018 21.489 8.05618 21.944C8.51118 22.4 9.07818 22.586 9.70618 22.67C10.3002 22.75 11.0502 22.75 11.9482 22.75H12.0522C12.9512 22.75 13.7002 22.75 14.2952 22.67C14.9222 22.586 15.4892 22.4 15.9452 21.944C16.4012 21.488 16.5852 20.922 16.6702 20.294C16.7502 19.7 16.7502 18.951 16.7502 18.052V13.859C17.2417 14.0051 17.6795 14.2921 18.0094 14.6846C18.3393 15.0771 18.5468 15.5577 18.6062 16.067L19.2562 21.587C19.2647 21.6871 19.2933 21.7845 19.3403 21.8734C19.3872 21.9622 19.4515 22.0407 19.5294 22.1043C19.6073 22.1678 19.6971 22.215 19.7936 22.2431C19.8901 22.2712 19.9912 22.2797 20.091 22.2679C20.1908 22.2562 20.2872 22.2246 20.3746 22.1748C20.4619 22.1251 20.5383 22.0583 20.5993 21.9785C20.6604 21.8987 20.7047 21.8074 20.7298 21.7101C20.7548 21.6127 20.7601 21.5114 20.7452 21.412L20.0952 15.892C19.9771 14.8888 19.4949 13.9638 18.7401 13.2924C17.9853 12.6211 17.0103 12.2502 16.0002 12.25H8.00018Z" fill="#767676"/>
</svg>
