<svg width="100%" height="100%" style="overflow:visible;" preserveAspectRatio="none" viewBox="0 0 12 12" fill="none" xmlns="http://www.w3.org/2000/svg">
<path fill-rule="evenodd" clip-rule="evenodd" d="M6 1.5C3.791 1.5 2 3.5015 2 5.75C2 7.981 3.2765 10.406 5.2685 11.337C5.49746 11.4442 5.74718 11.4998 6 11.4998C6.25282 11.4998 6.50254 11.4442 6.7315 11.337C8.7235 10.406 10 7.981 10 5.75C10 3.5015 8.209 1.5 6 1.5ZM6 6.5C6.26522 6.5 6.51957 6.39464 6.70711 6.20711C6.89464 6.01957 7 5.76522 7 5.5C7 5.23478 6.89464 4.98043 6.70711 4.79289C6.51957 4.60536 6.26522 4.5 6 4.5C5.73478 4.5 5.48043 4.60536 5.29289 4.79289C5.10536 4.98043 5 5.23478 5 5.5C5 5.76522 5.10536 6.01957 5.29289 6.20711C5.48043 6.39464 5.73478 6.5 6 6.5Z" fill="#EA5329"/>
</svg>
