<svg width="100%" height="100%" style="overflow:visible;" preserveAspectRatio="none" viewBox="0 0 12 12" fill="none" xmlns="http://www.w3.org/2000/svg">
<path fill-rule="evenodd" clip-rule="evenodd" d="M3.5 3H5.5C6.443 3 6.914 3 7.207 3.293C7.5 3.586 7.5 4.057 7.5 5V11.125H11C11.0995 11.125 11.1948 11.1645 11.2652 11.2348C11.3355 11.3052 11.375 11.4005 11.375 11.5C11.375 11.5995 11.3355 11.6948 11.2652 11.7652C11.1948 11.8355 11.0995 11.875 11 11.875H1C0.900544 11.875 0.805161 11.8355 0.734835 11.7652C0.664509 11.6948 0.625 11.5995 0.625 11.5C0.625 11.4005 0.664509 11.3052 0.734835 11.2348C0.805161 11.1645 0.900544 11.125 1 11.125H1.5V5C1.5 4.057 1.5 3.586 1.793 3.293C2.086 3 2.557 3 3.5 3ZM2.625 4.5C2.625 4.40054 2.66451 4.30516 2.73483 4.23483C2.80516 4.16451 2.90054 4.125 3 4.125H6C6.09946 4.125 6.19484 4.16451 6.26516 4.23483C6.33549 4.30516 6.375 4.40054 6.375 4.5C6.375 4.59946 6.33549 4.69484 6.26516 4.76516C6.19484 4.83549 6.09946 4.875 6 4.875H3C2.90054 4.875 2.80516 4.83549 2.73483 4.76516C2.66451 4.69484 2.625 4.59946 2.625 4.5ZM2.625 6C2.625 5.90054 2.66451 5.80516 2.73483 5.73484C2.80516 5.66451 2.90054 5.625 3 5.625H6C6.09946 5.625 6.19484 5.66451 6.26516 5.73484C6.33549 5.80516 6.375 5.90054 6.375 6C6.375 6.09946 6.33549 6.19484 6.26516 6.26516C6.19484 6.33549 6.09946 6.375 6 6.375H3C2.90054 6.375 2.80516 6.33549 2.73483 6.26516C2.66451 6.19484 2.625 6.09946 2.625 6ZM2.625 7.5C2.625 7.40054 2.66451 7.30516 2.73483 7.23484C2.80516 7.16451 2.90054 7.125 3 7.125H6C6.09946 7.125 6.19484 7.16451 6.26516 7.23484C6.33549 7.30516 6.375 7.40054 6.375 7.5C6.375 7.59946 6.33549 7.69484 6.26516 7.76516C6.19484 7.83549 6.09946 7.875 6 7.875H3C2.90054 7.875 2.80516 7.83549 2.73483 7.76516C2.66451 7.69484 2.625 7.59946 2.625 7.5ZM4.5 9.625C4.59946 9.625 4.69484 9.66451 4.76516 9.73483C4.83549 9.80516 4.875 9.90054 4.875 10V11.125H4.125V10C4.125 9.90054 4.16451 9.80516 4.23484 9.73483C4.30516 9.66451 4.40054 9.625 4.5 9.625Z" fill="#EA5329"/>
<path opacity="0.5" d="M7.4995 1.5H8.4995C9.4425 1.5 9.9135 1.5 10.2065 1.793C10.4995 2.086 10.4995 2.557 10.4995 3.5V11.125H7.4995V5C7.4995 4.057 7.4995 3.586 7.2065 3.293C6.9205 3.0065 6.4635 3 5.5625 3V2.25C5.6045 2.0565 5.675 1.91 5.7925 1.793C6.0845 1.5 6.5565 1.5 7.4995 1.5Z" fill="#EA5329"/>
</svg>
