<svg width="20" height="21" viewBox="0 0 20 21" fill="none" xmlns="http://www.w3.org/2000/svg">
<path d="M17.4184 10.9464C17.4996 10.7337 17.5208 10.4997 17.4794 10.2739C17.438 10.0481 17.3359 9.84073 17.1859 9.67799L12.8999 5.02323C12.8011 4.91209 12.6829 4.82343 12.5521 4.76245C12.4214 4.70146 12.2808 4.66936 12.1385 4.66801C11.9963 4.66667 11.8552 4.69611 11.7235 4.75462C11.5918 4.81314 11.4722 4.89954 11.3716 5.00881C11.271 5.11807 11.1914 5.248 11.1375 5.39101C11.0836 5.53402 11.0565 5.68726 11.0578 5.84177C11.059 5.99628 11.0886 6.14898 11.1447 6.29096C11.2009 6.43293 11.2825 6.56134 11.3848 6.66869L13.8429 9.33819H3.5715C3.28732 9.33819 3.01478 9.4608 2.81383 9.67903C2.61289 9.89726 2.5 10.1933 2.5 10.5019C2.5 10.8105 2.61289 11.1065 2.81383 11.3247C3.01478 11.543 3.28732 11.6656 3.5715 11.6656H13.8429L11.3859 14.3339C11.2836 14.4413 11.202 14.5697 11.1458 14.7116C11.0896 14.8536 11.0601 15.0063 11.0588 15.1608C11.0576 15.3153 11.0847 15.4686 11.1386 15.6116C11.1925 15.7546 11.272 15.8845 11.3726 15.9938C11.4732 16.1031 11.5929 16.1895 11.7246 16.248C11.8562 16.3065 11.9973 16.3359 12.1396 16.3346C12.2819 16.3332 12.4225 16.3011 12.5532 16.2402C12.6839 16.1792 12.8022 16.0905 12.901 15.9794L17.187 11.3246C17.2863 11.2163 17.3649 11.0878 17.4184 10.9464V10.9464Z" fill="white"/>
</svg>
