<svg width="20" height="21" viewBox="0 0 20 21" fill="none" xmlns="http://www.w3.org/2000/svg">
<path fill-rule="evenodd" clip-rule="evenodd" d="M10.293 3.79279C10.4805 3.60532 10.7348 3.5 11 3.5C11.2652 3.5 11.5195 3.60532 11.707 3.79279L17.707 9.79279C17.8945 9.98031 17.9998 10.2346 17.9998 10.4998C17.9998 10.765 17.8945 11.0193 17.707 11.2068L11.707 17.2068C11.5184 17.3889 11.2658 17.4897 11.0036 17.4875C10.7414 17.4852 10.4906 17.38 10.3052 17.1946C10.1198 17.0092 10.0146 16.7584 10.0123 16.4962C10.01 16.234 10.1108 15.9814 10.293 15.7928L14.586 11.4998H3C2.73478 11.4998 2.48043 11.3944 2.29289 11.2069C2.10536 11.0194 2 10.765 2 10.4998C2 10.2346 2.10536 9.98022 2.29289 9.79268C2.48043 9.60514 2.73478 9.49979 3 9.49979H14.586L10.293 5.20679C10.1055 5.01926 10.0002 4.76495 10.0002 4.49979C10.0002 4.23462 10.1055 3.98031 10.293 3.79279V3.79279Z" fill="white"/>
</svg>
