<svg width="17" height="17" viewBox="0 0 17 17" fill="none" xmlns="http://www.w3.org/2000/svg">
<path d="M6.97998 0.777322C7.07759 0.895934 7.13739 1.04109 7.15166 1.19404C7.16592 1.347 7.13398 1.50071 7.05998 1.63532C6.48184 2.6968 6.17991 3.88662 6.18198 5.09532C6.18198 9.11632 9.45998 12.3723 13.5 12.3723C14.027 12.3723 14.54 12.3173 15.033 12.2123C15.1841 12.1796 15.3415 12.1921 15.4856 12.2483C15.6296 12.3045 15.7539 12.4019 15.843 12.5283C15.937 12.6598 15.9849 12.8186 15.9793 12.9801C15.9737 13.1416 15.9149 13.2967 15.812 13.4213C15.0277 14.3848 14.0382 15.161 12.9158 15.6935C11.7934 16.226 10.5663 16.5013 9.32398 16.4993C4.71398 16.4993 0.97998 12.7853 0.97998 8.20932C0.97998 4.76532 3.09398 1.81132 6.10398 0.559322C6.25392 0.495954 6.42037 0.482948 6.57833 0.522258C6.73629 0.561567 6.87723 0.651071 6.97998 0.777322ZM5.83798 1.81032C4.68058 2.43115 3.71302 3.35396 3.03811 4.48068C2.36321 5.6074 2.00618 6.89593 2.00498 8.20932C2.00498 12.2293 5.28398 15.4853 9.32398 15.4853C10.2914 15.487 11.2496 15.2968 12.143 14.9257C13.0365 14.5546 13.8474 14.0099 14.529 13.3233C14.192 13.3653 13.849 13.3863 13.5 13.3863C8.88998 13.3863 5.15698 9.67232 5.15698 5.09632C5.15698 3.92932 5.39898 2.81832 5.83798 1.81032Z" fill="#48525C"/>
</svg>
