<svg width="22" height="23" viewBox="0 0 22 23" fill="none" xmlns="http://www.w3.org/2000/svg">
<path d="M21.8556 6.83082C21.8556 4.89723 20.4334 3.34176 18.676 3.34176C16.2955 3.23047 13.8678 3.1875 11.3867 3.1875H10.6133C8.1383 3.1875 5.70627 3.23047 3.3258 3.34219C1.57267 3.34219 0.150408 4.90625 0.150408 6.83984C0.0429859 8.3691 -0.00256097 9.89879 1.71558e-05 11.4285C-0.00427972 12.9582 0.0444182 14.4893 0.146111 16.0218C0.146111 17.9554 1.56838 19.5238 3.3215 19.5238C5.82228 19.6398 8.38752 19.6914 10.9957 19.6871C13.6082 19.6957 16.1663 19.6412 18.6699 19.5238C20.4274 19.5238 21.8496 17.9554 21.8496 16.0218C21.9528 14.4879 22 12.9582 21.9957 11.4242C22.0055 9.89449 21.9588 8.36337 21.8556 6.83082ZM8.89455 15.6437V7.20035L15.125 11.4199L8.89455 15.6437Z" fill="white"/>
</svg>
