<svg width="22" height="23" viewBox="0 0 22 23" fill="none" xmlns="http://www.w3.org/2000/svg">
<path d="M17.7113 5.53617C17.5721 5.46422 17.4366 5.38535 17.3053 5.29984C16.9234 5.04738 16.5733 4.74991 16.2624 4.41383C15.4847 3.52395 15.1942 2.62117 15.0872 1.9891H15.0915C15.0022 1.46445 15.0391 1.125 15.0447 1.125H11.5024V14.8226C11.5024 15.0065 11.5024 15.1882 11.4946 15.3679C11.4946 15.3902 11.4925 15.4108 11.4912 15.4349C11.4912 15.4448 11.4912 15.4551 11.489 15.4654V15.4731C11.4517 15.9646 11.2942 16.4394 11.0303 16.8556C10.7664 17.2719 10.4042 17.617 9.97568 17.8605C9.52904 18.1146 9.02388 18.2479 8.51002 18.2472C6.85959 18.2472 5.52197 16.9014 5.52197 15.2394C5.52197 13.5773 6.85959 12.2316 8.51002 12.2316C8.82244 12.2313 9.13293 12.2804 9.42998 12.3772L9.43428 8.77043C8.53252 8.65395 7.61641 8.72561 6.74373 8.98091C5.87106 9.2362 5.06076 9.66958 4.36396 10.2537C3.75341 10.7842 3.24011 11.4172 2.84717 12.1241C2.69764 12.382 2.13346 13.4179 2.06514 15.0993C2.02217 16.0536 2.30877 17.0423 2.44541 17.451V17.4596C2.53135 17.7002 2.86435 18.5213 3.40705 19.2136C3.84466 19.7688 4.36168 20.2566 4.94146 20.6612V20.6526L4.95006 20.6612C6.66494 21.8265 8.56631 21.75 8.56631 21.75C8.89545 21.7367 9.99803 21.75 11.2501 21.1566C12.6389 20.4988 13.4295 19.5186 13.4295 19.5186C13.9346 18.933 14.3362 18.2656 14.6172 17.5451C14.9377 16.7025 15.0447 15.6918 15.0447 15.2879V8.02105C15.0877 8.04684 15.66 8.42539 15.66 8.42539C15.66 8.42539 16.4846 8.95391 17.7711 9.29809C18.694 9.54301 19.9376 9.59457 19.9376 9.59457V6.07801C19.5019 6.12527 18.6171 5.98777 17.7113 5.53617Z" fill="white"/>
</svg>
