<svg width="22" height="23" viewBox="0 0 22 23" fill="none" xmlns="http://www.w3.org/2000/svg">
<path d="M15.0103 3.41652C16.073 3.4197 17.0913 3.84327 17.8428 4.59474C18.5942 5.3462 19.0178 6.3645 19.021 7.42723V15.4478C19.0178 16.5105 18.5942 17.5288 17.8428 18.2803C17.0913 19.0317 16.073 19.4553 15.0103 19.4585H6.98973C5.927 19.4553 4.9087 19.0317 4.15724 18.2803C3.40577 17.5288 2.9822 16.5105 2.97902 15.4478V7.42723C2.9822 6.3645 3.40577 5.3462 4.15724 4.59474C4.9087 3.84327 5.927 3.4197 6.98973 3.41652H15.0103ZM15.0103 1.8125H6.98973C3.90156 1.8125 1.375 4.33906 1.375 7.42723V15.4478C1.375 18.5359 3.90156 21.0625 6.98973 21.0625H15.0103C18.0984 21.0625 20.625 18.5359 20.625 15.4478V7.42723C20.625 4.33906 18.0984 1.8125 15.0103 1.8125Z" fill="white"/>
<path d="M16.2134 7.42969C15.9754 7.42969 15.7428 7.35913 15.545 7.22693C15.3471 7.09472 15.1929 6.90682 15.1019 6.68698C15.0108 6.46714 14.987 6.22523 15.0334 5.99184C15.0798 5.75846 15.1944 5.54409 15.3627 5.37583C15.5309 5.20757 15.7453 5.09298 15.9787 5.04656C16.2121 5.00013 16.454 5.02396 16.6738 5.11502C16.8937 5.20608 17.0816 5.36029 17.2138 5.55814C17.346 5.756 17.4165 5.98861 17.4165 6.22656C17.4169 6.38465 17.386 6.54126 17.3256 6.68738C17.2653 6.8335 17.1767 6.96627 17.0649 7.07806C16.9531 7.18985 16.8203 7.27846 16.6742 7.3388C16.5281 7.39914 16.3715 7.43003 16.2134 7.42969ZM11 8.23148C11.6346 8.23148 12.2549 8.41966 12.7825 8.77221C13.3102 9.12476 13.7214 9.62586 13.9642 10.2121C14.2071 10.7984 14.2706 11.4435 14.1468 12.0659C14.023 12.6883 13.7175 13.26 13.2687 13.7087C12.82 14.1574 12.2483 14.463 11.6259 14.5868C11.0036 14.7106 10.3584 14.647 9.77217 14.4042C9.1859 14.1614 8.6848 13.7501 8.33225 13.2225C7.9797 12.6949 7.79153 12.0745 7.79153 11.44C7.79244 10.5893 8.13076 9.77374 8.73227 9.17223C9.33378 8.57072 10.1493 8.23239 11 8.23148ZM11 6.62746C10.0482 6.62746 9.11773 6.90971 8.32632 7.43851C7.53491 7.96732 6.91808 8.71893 6.55383 9.5983C6.18959 10.4777 6.09428 11.4453 6.27997 12.3788C6.46566 13.3124 6.92401 14.1699 7.59705 14.8429C8.27009 15.516 9.1276 15.9743 10.0611 16.16C10.9947 16.3457 11.9623 16.2504 12.8417 15.8861C13.721 15.5219 14.4726 14.9051 15.0014 14.1136C15.5303 13.3222 15.8125 12.3918 15.8125 11.44C15.8125 10.1636 15.3055 8.93953 14.403 8.03701C13.5004 7.13449 12.2764 6.62746 11 6.62746Z" fill="white"/>
</svg>
