<svg width="22" height="23" viewBox="0 0 22 23" fill="none" xmlns="http://www.w3.org/2000/svg">
<path d="M21.3125 5.14259C20.5388 5.47875 19.7202 5.70023 18.8826 5.80001C19.7629 5.28455 20.4249 4.46564 20.7445 3.49688C19.9122 3.98354 19.0032 4.32501 18.0563 4.50665C17.6576 4.08879 17.1781 3.75637 16.6469 3.5296C16.1157 3.30283 15.544 3.18644 14.9664 3.18751C12.6281 3.18751 10.7357 5.05235 10.7357 7.35118C10.7341 7.67094 10.7707 7.98974 10.8449 8.30079C9.16811 8.22218 7.5262 7.79444 6.02421 7.04492C4.52222 6.29541 3.19322 5.24062 2.12223 3.94805C1.7465 4.58147 1.54779 5.30417 1.54688 6.04063C1.54688 7.48438 2.30012 8.76055 3.4375 9.50821C2.76363 9.49222 2.10357 9.31386 1.51336 8.98829V9.03985C1.51336 11.0594 2.9743 12.7395 4.90789 13.1219C4.54428 13.2188 4.16959 13.2679 3.79328 13.268C3.52626 13.2684 3.25985 13.2425 2.99793 13.1906C3.53547 14.8449 5.09996 16.0481 6.9532 16.0824C5.44731 17.243 3.59847 17.8702 1.69727 17.8656C1.3598 17.8651 1.02264 17.845 0.6875 17.8055C2.6216 19.0405 4.86984 19.6938 7.16461 19.6875C14.9574 19.6875 19.2148 13.341 19.2148 7.83673C19.2148 7.65626 19.21 7.47579 19.2014 7.29962C20.0278 6.71183 20.7426 5.98138 21.3125 5.14259Z" fill="white"/>
</svg>
