<svg width="21" height="21" viewBox="0 0 21 21" fill="none" xmlns="http://www.w3.org/2000/svg">
<path d="M9.61631 3C8.40266 3 7.21626 3.35989 6.20715 4.03416C5.19804 4.70843 4.41153 5.66679 3.94708 6.78806C3.48264 7.90932 3.36112 9.14314 3.59789 10.3335C3.83466 11.5238 4.41909 12.6172 5.27727 13.4754C6.13545 14.3335 7.22884 14.918 8.41917 15.1547C9.6095 15.3915 10.8433 15.27 11.9646 14.8056C13.0859 14.3411 14.0442 13.5546 14.7185 12.5455C15.3927 11.5364 15.7526 10.35 15.7526 9.13633C15.7525 7.5089 15.106 5.94817 13.9552 4.7974C12.8045 3.64664 11.2437 3.0001 9.61631 3Z" stroke="#48525C" stroke-width="1.25" stroke-miterlimit="10" stroke-linecap="round" stroke-linejoin="round"/>
<path d="M14.1943 13.7148L18.4799 18.0004" stroke="#48525C" stroke-width="1.25" stroke-miterlimit="10" stroke-linecap="round" stroke-linejoin="round"/>
</svg>
