<svg width="12" height="13" viewBox="0 0 12 13" fill="none" xmlns="http://www.w3.org/2000/svg">
<path d="M4.875 6.5C4.875 6.20163 4.99353 5.91548 5.2045 5.7045C5.41548 5.49353 5.70163 5.375 6 5.375C6.29837 5.375 6.58452 5.49353 6.7955 5.7045C7.00647 5.91548 7.125 6.20163 7.125 6.5C7.125 6.79837 7.00647 7.08452 6.7955 7.2955C6.58452 7.50647 6.29837 7.625 6 7.625C5.70163 7.625 5.41548 7.50647 5.2045 7.2955C4.99353 7.08452 4.875 6.79837 4.875 6.5Z" fill="black"/>
<path fill-rule="evenodd" clip-rule="evenodd" d="M1 6.5C1 7.32 1.2125 7.5955 1.6375 8.148C2.486 9.25 3.909 10.5 6 10.5C8.091 10.5 9.514 9.25 10.3625 8.148C10.7875 7.596 11 7.3195 11 6.5C11 5.68 10.7875 5.4045 10.3625 4.852C9.514 3.75 8.091 2.5 6 2.5C3.909 2.5 2.486 3.75 1.6375 4.852C1.2125 5.405 1 5.6805 1 6.5ZM6 4.625C5.50272 4.625 5.02581 4.82254 4.67417 5.17417C4.32254 5.52581 4.125 6.00272 4.125 6.5C4.125 6.99728 4.32254 7.47419 4.67417 7.82583C5.02581 8.17746 5.50272 8.375 6 8.375C6.49728 8.375 6.97419 8.17746 7.32583 7.82583C7.67746 7.47419 7.875 6.99728 7.875 6.5C7.875 6.00272 7.67746 5.52581 7.32583 5.17417C6.97419 4.82254 6.49728 4.625 6 4.625Z" fill="black"/>
</svg>
