<svg width="12" height="13" viewBox="0 0 12 13" fill="none" xmlns="http://www.w3.org/2000/svg">
<path d="M3.47 1.5C3.678 1.5 3.8465 1.662 3.8465 1.862V2.592C4.1805 2.586 4.555 2.586 4.9765 2.586H6.984C7.405 2.586 7.7795 2.586 8.1135 2.5925V1.8625C8.1135 1.6625 8.282 1.5 8.49 1.5C8.698 1.5 8.8665 1.662 8.8665 1.862V2.625C9.589 2.6805 10.0635 2.817 10.4115 3.1525C10.7605 3.4875 10.9025 3.9435 10.96 4.6385L11 5H1V4.638C1.058 3.943 1.2 3.487 1.5485 3.152C1.897 2.817 2.371 2.68 3.0935 2.6245V1.862C3.0935 1.662 3.262 1.5 3.47 1.5Z" fill="#EA5329"/>
<path opacity="0.5" d="M10.9999 7.5V6.5C10.9999 6.0805 10.9979 5.3325 10.9914 5H1.00491C0.998405 5.3325 0.999905 6.0805 0.999905 6.5V7.5C0.999905 9.3855 0.999905 10.3285 1.58591 10.914C2.17191 11.4995 3.11391 11.5 4.99991 11.5H6.99991C8.88491 11.5 9.82791 11.5 10.4139 10.914C10.9999 10.328 10.9999 9.386 10.9999 7.5Z" fill="#EA5329"/>
<path d="M9 9C9 9.13261 8.94732 9.25979 8.85355 9.35355C8.75979 9.44732 8.63261 9.5 8.5 9.5C8.36739 9.5 8.24021 9.44732 8.14645 9.35355C8.05268 9.25979 8 9.13261 8 9C8 8.86739 8.05268 8.74021 8.14645 8.64645C8.24021 8.55268 8.36739 8.5 8.5 8.5C8.63261 8.5 8.75979 8.55268 8.85355 8.64645C8.94732 8.74021 9 8.86739 9 9ZM9 7C9 7.13261 8.94732 7.25979 8.85355 7.35355C8.75979 7.44732 8.63261 7.5 8.5 7.5C8.36739 7.5 8.24021 7.44732 8.14645 7.35355C8.05268 7.25979 8 7.13261 8 7C8 6.86739 8.05268 6.74021 8.14645 6.64645C8.24021 6.55268 8.36739 6.5 8.5 6.5C8.63261 6.5 8.75979 6.55268 8.85355 6.64645C8.94732 6.74021 9 6.86739 9 7ZM6.5 9C6.5 9.13261 6.44732 9.25979 6.35355 9.35355C6.25979 9.44732 6.13261 9.5 6 9.5C5.86739 9.5 5.74021 9.44732 5.64645 9.35355C5.55268 9.25979 5.5 9.13261 5.5 9C5.5 8.86739 5.55268 8.74021 5.64645 8.64645C5.74021 8.55268 5.86739 8.5 6 8.5C6.13261 8.5 6.25979 8.55268 6.35355 8.64645C6.44732 8.74021 6.5 8.86739 6.5 9ZM6.5 7C6.5 7.13261 6.44732 7.25979 6.35355 7.35355C6.25979 7.44732 6.13261 7.5 6 7.5C5.86739 7.5 5.74021 7.44732 5.64645 7.35355C5.55268 7.25979 5.5 7.13261 5.5 7C5.5 6.86739 5.55268 6.74021 5.64645 6.64645C5.74021 6.55268 5.86739 6.5 6 6.5C6.13261 6.5 6.25979 6.55268 6.35355 6.64645C6.44732 6.74021 6.5 6.86739 6.5 7ZM4 9C4 9.13261 3.94732 9.25979 3.85355 9.35355C3.75979 9.44732 3.63261 9.5 3.5 9.5C3.36739 9.5 3.24021 9.44732 3.14645 9.35355C3.05268 9.25979 3 9.13261 3 9C3 8.86739 3.05268 8.74021 3.14645 8.64645C3.24021 8.55268 3.36739 8.5 3.5 8.5C3.63261 8.5 3.75979 8.55268 3.85355 8.64645C3.94732 8.74021 4 8.86739 4 9ZM4 7C4 7.13261 3.94732 7.25979 3.85355 7.35355C3.75979 7.44732 3.63261 7.5 3.5 7.5C3.36739 7.5 3.24021 7.44732 3.14645 7.35355C3.05268 7.25979 3 7.13261 3 7C3 6.86739 3.05268 6.74021 3.14645 6.64645C3.24021 6.55268 3.36739 6.5 3.5 6.5C3.63261 6.5 3.75979 6.55268 3.85355 6.64645C3.94732 6.74021 4 6.86739 4 7Z" fill="#EA5329"/>
</svg>
