<svg width="12" height="13" viewBox="0 0 12 13" fill="none" xmlns="http://www.w3.org/2000/svg">
<path opacity="0.5" d="M6 1.5C3.791 1.5 2 3.5015 2 5.75C2 7.981 3.2765 10.406 5.2685 11.337C5.49746 11.4442 5.74718 11.4998 6 11.4998C6.25282 11.4998 6.50254 11.4442 6.7315 11.337C8.7235 10.406 10 7.981 10 5.75C10 3.5015 8.209 1.5 6 1.5Z" fill="#EA5329"/>
<path d="M6 6.75C6.33152 6.75 6.64946 6.6183 6.88388 6.38388C7.1183 6.14946 7.25 5.83152 7.25 5.5C7.25 5.16848 7.1183 4.85054 6.88388 4.61612C6.64946 4.3817 6.33152 4.25 6 4.25C5.66848 4.25 5.35054 4.3817 5.11612 4.61612C4.8817 4.85054 4.75 5.16848 4.75 5.5C4.75 5.83152 4.8817 6.14946 5.11612 6.38388C5.35054 6.6183 5.66848 6.75 6 6.75Z" fill="#EA5329"/>
</svg>
