<svg width="100%" height="100%" style="overflow:visible;" preserveAspectRatio="none" viewBox="0 0 24 24" fill="none" xmlns="http://www.w3.org/2000/svg">
<path fill-rule="evenodd" clip-rule="evenodd" d="M13.1066 22H10.8946C7.44765 22 5.72465 22 4.54965 20.988C3.37465 19.976 3.13065 18.283 2.64365 14.895L2.36465 12.958C1.98465 10.321 1.79465 9.002 2.33565 7.875C2.87665 6.748 4.02665 6.062 6.32765 4.692L7.71265 3.867C9.80065 2.622 10.8466 2 12.0006 2C13.1546 2 14.1996 2.622 16.2886 3.867L17.6736 4.692C19.9736 6.062 21.1246 6.748 21.6656 7.875C22.2066 9.002 22.0156 10.321 21.6356 12.958L21.3576 14.895C20.8706 18.283 20.6266 19.976 19.4516 20.988C18.2766 22 16.5536 22 13.1066 22ZM8.39865 15.553C8.51708 15.3932 8.69413 15.287 8.89085 15.2578C9.08756 15.2285 9.28785 15.2786 9.44765 15.397C10.1756 15.937 11.0546 16.25 12.0006 16.25C12.9466 16.25 13.8256 15.937 14.5536 15.397C14.6328 15.3383 14.7227 15.2958 14.8182 15.2718C14.9138 15.2478 15.0131 15.243 15.1106 15.2574C15.2081 15.2718 15.3017 15.3053 15.3862 15.356C15.4707 15.4066 15.5444 15.4734 15.6031 15.5525C15.6618 15.6316 15.7044 15.7215 15.7283 15.8171C15.7523 15.9127 15.7572 16.012 15.7428 16.1095C15.7283 16.2069 15.6948 16.3006 15.6442 16.3851C15.5936 16.4696 15.5268 16.5433 15.4476 16.602C14.4522 17.3459 13.2433 17.7485 12.0006 17.75C10.758 17.7485 9.54905 17.3459 8.55365 16.602C8.39403 16.4834 8.28804 16.3063 8.25897 16.1096C8.22991 15.9129 8.28015 15.7127 8.39865 15.553Z" fill="#767676"/>
</svg>
