<svg width="100%" height="100%" style="overflow:visible;" preserveAspectRatio="none" viewBox="0 0 24 24" fill="none" xmlns="http://www.w3.org/2000/svg">
<path fill-rule="evenodd" clip-rule="evenodd" d="M13.4351 5.78398C12.9946 5.54381 12.5008 5.41797 11.9991 5.41797C11.4973 5.41797 11.0036 5.54381 10.5631 5.78398L5.76808 8.39798C5.29497 8.65614 4.90015 9.03699 4.62511 9.50049C4.35007 9.96399 4.20498 10.493 4.20508 11.032V15.97C4.20498 16.5089 4.35007 17.038 4.62511 17.5015C4.90015 17.965 5.29497 18.3458 5.76808 18.604L10.5631 21.218C11.0036 21.4581 11.4973 21.584 11.9991 21.584C12.5008 21.584 12.9946 21.4581 13.4351 21.218L18.2291 18.604C18.7024 18.3459 19.0974 17.9652 19.3726 17.5016C19.6478 17.0381 19.7931 16.509 19.7931 15.97V11.031C19.7931 10.4919 19.6478 9.96282 19.3726 9.49931C19.0974 9.0358 18.7024 8.65501 18.2291 8.39698L13.4351 5.78398ZM11.9991 10.501C11.7151 10.501 11.5251 10.841 11.1451 11.524L11.0471 11.7C10.9391 11.894 10.8851 11.99 10.8011 12.054C10.7161 12.118 10.6111 12.142 10.4011 12.189L10.2111 12.233C9.47308 12.4 9.10408 12.483 9.01608 12.765C8.92808 13.047 9.18008 13.342 9.68308 13.93L9.81308 14.082C9.95608 14.249 10.0281 14.332 10.0601 14.436C10.0921 14.54 10.0811 14.651 10.0601 14.874L10.0401 15.077C9.96408 15.862 9.92608 16.255 10.1551 16.429C10.3851 16.603 10.7311 16.444 11.4221 16.126L11.6001 16.044C11.7971 15.954 11.8951 15.909 11.9991 15.909C12.1031 15.909 12.2011 15.954 12.3981 16.044L12.5761 16.126C13.2671 16.445 13.6131 16.603 13.8431 16.429C14.0731 16.255 14.0341 15.862 13.9581 15.077L13.9381 14.874C13.9171 14.651 13.9061 14.54 13.9381 14.436C13.9701 14.332 14.0421 14.249 14.1851 14.082L14.3151 13.93C14.8181 13.342 15.0701 13.048 14.9821 12.765C14.8941 12.483 14.5251 12.4 13.7871 12.233L13.5971 12.189C13.3871 12.142 13.2821 12.119 13.1971 12.054C13.1131 11.99 13.0591 11.894 12.9511 11.7L12.8531 11.524C12.4731 10.842 12.2831 10.501 11.9991 10.501Z" fill="#767676"/>
<path d="M11 2H13C14.886 2 15.828 2 16.414 2.586C17 3.172 17 4.114 17 6V6.018L14.154 4.466C13.4932 4.10575 12.7526 3.91699 12 3.91699C11.2474 3.91699 10.5068 4.10575 9.846 4.466L7 6.018V6C7 4.114 7 3.172 7.586 2.586C8.172 2 9.114 2 11 2Z" fill="#767676"/>
</svg>
