<svg width="100%" height="100%" style="overflow:visible;" preserveAspectRatio="none" viewBox="0 0 20 20" fill="none" xmlns="http://www.w3.org/2000/svg">
<path d="M7.78925 15.8346C7.56997 15.8346 7.35563 15.7662 7.17332 15.6382C6.99101 15.5101 6.84892 15.3282 6.76501 15.1153C6.6811 14.9024 6.65914 14.6681 6.70191 14.4421C6.74467 14.2161 6.85024 14.0085 7.00528 13.8456L10.6568 10.0085L7.00528 6.17134C6.89937 6.06385 6.81489 5.93528 6.75677 5.79311C6.69866 5.65095 6.66807 5.49805 6.66679 5.34333C6.66551 5.18861 6.69357 5.03517 6.74932 4.89197C6.80508 4.74877 6.88742 4.61866 6.99153 4.50926C7.09565 4.39985 7.21946 4.31333 7.35573 4.25474C7.49201 4.19615 7.63803 4.16667 7.78526 4.16801C7.9325 4.16936 8.07801 4.2015 8.21329 4.26257C8.34858 4.32364 8.47094 4.41241 8.57323 4.5237L13.0087 9.18464C13.2166 9.40315 13.3334 9.69948 13.3334 10.0085C13.3334 10.3174 13.2166 10.6138 13.0087 10.8323L8.57323 15.4932C8.36532 15.7118 8.08332 15.8346 7.78925 15.8346Z" fill="#9CA3AF"/>
</svg>
