<svg width="100%" height="100%" style="overflow:visible;" preserveAspectRatio="none" viewBox="0 0 24 24" fill="none" xmlns="http://www.w3.org/2000/svg">
<path fill-rule="evenodd" clip-rule="evenodd" d="M13.4361 5.78398C12.9955 5.54381 12.5018 5.41797 12.0001 5.41797C11.4983 5.41797 11.0046 5.54381 10.5641 5.78398L5.76905 8.39798C5.29595 8.65614 4.90113 9.03699 4.62609 9.50049C4.35105 9.96399 4.20595 10.493 4.20605 11.032V15.97C4.20595 16.5089 4.35105 17.038 4.62609 17.5015C4.90113 17.965 5.29595 18.3458 5.76905 18.604L10.5641 21.218C11.0046 21.4581 11.4983 21.584 12.0001 21.584C12.5018 21.584 12.9955 21.4581 13.4361 21.218L18.2301 18.604C18.7033 18.3459 19.0984 17.9652 19.3736 17.5016C19.6488 17.0381 19.7941 16.509 19.7941 15.97V11.031C19.7941 10.4919 19.6488 9.96282 19.3736 9.49931C19.0984 9.0358 18.7033 8.65501 18.2301 8.39698L13.4361 5.78398ZM12.0001 10.501C11.7161 10.501 11.5261 10.841 11.1461 11.524L11.0481 11.7C10.9401 11.894 10.8861 11.99 10.8021 12.054C10.7171 12.118 10.6121 12.142 10.4021 12.189L10.2121 12.233C9.47405 12.4 9.10505 12.483 9.01706 12.765C8.92906 13.047 9.18106 13.342 9.68405 13.93L9.81405 14.082C9.95706 14.249 10.0291 14.332 10.0611 14.436C10.0931 14.54 10.0821 14.651 10.0611 14.874L10.0411 15.077C9.96505 15.862 9.92705 16.255 10.1561 16.429C10.3861 16.603 10.7321 16.444 11.4231 16.126L11.6011 16.044C11.7981 15.954 11.8961 15.909 12.0001 15.909C12.1041 15.909 12.2021 15.954 12.3991 16.044L12.5771 16.126C13.2681 16.445 13.6141 16.603 13.8441 16.429C14.0741 16.255 14.0351 15.862 13.9591 15.077L13.9391 14.874C13.9181 14.651 13.9071 14.54 13.9391 14.436C13.9711 14.332 14.0431 14.249 14.1861 14.082L14.3161 13.93C14.8191 13.342 15.0711 13.048 14.9831 12.765C14.8951 12.483 14.5261 12.4 13.7881 12.233L13.5981 12.189C13.3881 12.142 13.2831 12.119 13.1981 12.054C13.1141 11.99 13.0601 11.894 12.9521 11.7L12.8541 11.524C12.4741 10.842 12.2841 10.501 12.0001 10.501Z" fill="#767676"/>
<path d="M11 2H13C14.886 2 15.828 2 16.414 2.586C17 3.172 17 4.114 17 6V6.018L14.154 4.466C13.4932 4.10575 12.7526 3.91699 12 3.91699C11.2474 3.91699 10.5068 4.10575 9.846 4.466L7 6.018V6C7 4.114 7 3.172 7.586 2.586C8.172 2 9.114 2 11 2Z" fill="#767676"/>
</svg>
