<svg width="100%" height="100%" style="overflow:visible;" preserveAspectRatio="none" viewBox="0 0 16 16" fill="none" xmlns="http://www.w3.org/2000/svg">
<path d="M4.62659 1.33203C4.90392 1.33203 5.12858 1.54803 5.12858 1.8147V2.78803C5.57392 2.78003 6.07325 2.78003 6.63525 2.78003H9.31192C9.87325 2.78003 10.3726 2.78003 10.8179 2.7887V1.81536C10.8179 1.5487 11.0426 1.33203 11.3199 1.33203C11.5973 1.33203 11.8219 1.54803 11.8219 1.8147V2.83203C12.7853 2.90603 13.4179 3.08803 13.8819 3.53536C14.3473 3.98203 14.5366 4.59003 14.6133 5.5167L14.6666 5.9987H1.33325V5.51603C1.41059 4.58936 1.59992 3.98136 2.06459 3.5347C2.52925 3.08803 3.16125 2.90536 4.12458 2.83136V1.8147C4.12458 1.54803 4.34925 1.33203 4.62659 1.33203Z" fill="#00277F"/>
<path opacity="0.5" d="M14.6667 9.33333V8C14.6667 7.44067 14.664 6.44333 14.6553 6H1.34C1.33133 6.44333 1.33333 7.44067 1.33333 8V9.33333C1.33333 11.8473 1.33333 13.1047 2.11466 13.8853C2.896 14.666 4.152 14.6667 6.66666 14.6667H9.33333C11.8467 14.6667 13.104 14.6667 13.8853 13.8853C14.6667 13.104 14.6667 11.848 14.6667 9.33333Z" fill="#00277F"/>
<path d="M12 11.3333C12 11.5101 11.9298 11.6797 11.8047 11.8047C11.6797 11.9298 11.5101 12 11.3333 12C11.1565 12 10.987 11.9298 10.8619 11.8047C10.7369 11.6797 10.6667 11.5101 10.6667 11.3333C10.6667 11.1565 10.7369 10.987 10.8619 10.8619C10.987 10.7369 11.1565 10.6667 11.3333 10.6667C11.5101 10.6667 11.6797 10.7369 11.8047 10.8619C11.9298 10.987 12 11.1565 12 11.3333ZM12 8.66667C12 8.84348 11.9298 9.01305 11.8047 9.13807C11.6797 9.2631 11.5101 9.33333 11.3333 9.33333C11.1565 9.33333 10.987 9.2631 10.8619 9.13807C10.7369 9.01305 10.6667 8.84348 10.6667 8.66667C10.6667 8.48986 10.7369 8.32029 10.8619 8.19526C10.987 8.07024 11.1565 8 11.3333 8C11.5101 8 11.6797 8.07024 11.8047 8.19526C11.9298 8.32029 12 8.48986 12 8.66667ZM8.66667 11.3333C8.66667 11.5101 8.59643 11.6797 8.4714 11.8047C8.34638 11.9298 8.17681 12 8 12C7.82319 12 7.65362 11.9298 7.5286 11.8047C7.40357 11.6797 7.33333 11.5101 7.33333 11.3333C7.33333 11.1565 7.40357 10.987 7.5286 10.8619C7.65362 10.7369 7.82319 10.6667 8 10.6667C8.17681 10.6667 8.34638 10.7369 8.4714 10.8619C8.59643 10.987 8.66667 11.1565 8.66667 11.3333ZM8.66667 8.66667C8.66667 8.84348 8.59643 9.01305 8.4714 9.13807C8.34638 9.2631 8.17681 9.33333 8 9.33333C7.82319 9.33333 7.65362 9.2631 7.5286 9.13807C7.40357 9.01305 7.33333 8.84348 7.33333 8.66667C7.33333 8.48986 7.40357 8.32029 7.5286 8.19526C7.65362 8.07024 7.82319 8 8 8C8.17681 8 8.34638 8.07024 8.4714 8.19526C8.59643 8.32029 8.66667 8.48986 8.66667 8.66667ZM5.33333 11.3333C5.33333 11.5101 5.2631 11.6797 5.13807 11.8047C5.01305 11.9298 4.84348 12 4.66667 12C4.48986 12 4.32029 11.9298 4.19526 11.8047C4.07024 11.6797 4 11.5101 4 11.3333C4 11.1565 4.07024 10.987 4.19526 10.8619C4.32029 10.7369 4.48986 10.6667 4.66667 10.6667C4.84348 10.6667 5.01305 10.7369 5.13807 10.8619C5.2631 10.987 5.33333 11.1565 5.33333 11.3333ZM5.33333 8.66667C5.33333 8.84348 5.2631 9.01305 5.13807 9.13807C5.01305 9.2631 4.84348 9.33333 4.66667 9.33333C4.48986 9.33333 4.32029 9.2631 4.19526 9.13807C4.07024 9.01305 4 8.84348 4 8.66667C4 8.48986 4.07024 8.32029 4.19526 8.19526C4.32029 8.07024 4.48986 8 4.66667 8C4.84348 8 5.01305 8.07024 5.13807 8.19526C5.2631 8.32029 5.33333 8.48986 5.33333 8.66667Z" fill="#00277F"/>
</svg>
