<svg width="100%" height="100%" style="overflow:visible;" preserveAspectRatio="none" viewBox="0 0 24 24" fill="none" xmlns="http://www.w3.org/2000/svg">
<path d="M11.9999 10C13.0608 10 14.0782 9.57857 14.8284 8.82843C15.5785 8.07828 15.9999 7.06087 15.9999 6C15.9999 4.93913 15.5785 3.92172 14.8284 3.17157C14.0782 2.42143 13.0608 2 11.9999 2C10.9391 2 9.92166 2.42143 9.17151 3.17157C8.42137 3.92172 7.99994 4.93913 7.99994 6C7.99994 7.06087 8.42137 8.07828 9.17151 8.82843C9.92166 9.57857 10.9391 10 11.9999 10ZM7.99994 12.25C6.98978 12.2502 6.01482 12.6211 5.26 13.2924C4.50518 13.9638 4.023 14.8888 3.90494 15.892L3.25494 21.412C3.2316 21.6096 3.28771 21.8084 3.41092 21.9646C3.53413 22.1208 3.71435 22.2217 3.91194 22.245C4.10952 22.2683 4.30829 22.2122 4.46451 22.089C4.62072 21.9658 4.7216 21.7856 4.74494 21.588L5.39494 16.068C5.45406 15.5587 5.66133 15.0779 5.99107 14.6852C6.3208 14.2926 6.75851 14.0053 7.24994 13.859V18.052C7.24994 18.951 7.24994 19.7 7.32994 20.294C7.41394 20.922 7.59994 21.489 8.05594 21.944C8.51094 22.4 9.07794 22.586 9.70594 22.67C10.2999 22.75 11.0499 22.75 11.9479 22.75H12.0519C12.9509 22.75 13.6999 22.75 14.2949 22.67C14.9219 22.586 15.4889 22.4 15.9449 21.944C16.4009 21.488 16.5849 20.922 16.6699 20.294C16.7499 19.7 16.7499 18.951 16.7499 18.052V13.859C17.2414 14.0051 17.6792 14.2921 18.0091 14.6846C18.3391 15.0771 18.5466 15.5577 18.6059 16.067L19.2559 21.587C19.2645 21.6871 19.2931 21.7845 19.34 21.8734C19.387 21.9622 19.4513 22.0407 19.5291 22.1043C19.607 22.1678 19.6969 22.215 19.7933 22.2431C19.8898 22.2712 19.9909 22.2797 20.0908 22.2679C20.1906 22.2562 20.287 22.2246 20.3743 22.1748C20.4616 22.1251 20.5381 22.0583 20.5991 21.9785C20.6601 21.8987 20.7045 21.8074 20.7295 21.7101C20.7546 21.6127 20.7598 21.5114 20.7449 21.412L20.0949 15.892C19.9769 14.8888 19.4947 13.9638 18.7399 13.2924C17.9851 12.6211 17.0101 12.2502 15.9999 12.25H7.99994Z" fill="#767676"/>
</svg>
