<svg width="100%" height="100%" style="overflow:visible;" preserveAspectRatio="none" viewBox="0 0 16 16" fill="none" xmlns="http://www.w3.org/2000/svg">
<path fill-rule="evenodd" clip-rule="evenodd" d="M2.95361 5.67462C2.99636 5.62474 3.04853 5.58377 3.10712 5.55406C3.16571 5.52435 3.22959 5.50647 3.29509 5.50146C3.36059 5.49644 3.42644 5.50439 3.48888 5.52483C3.55131 5.54528 3.6091 5.57783 3.65895 5.62062L8.00028 9.34129L12.3416 5.62062C12.4428 5.53938 12.5717 5.50067 12.7009 5.51269C12.8301 5.52471 12.9496 5.58652 13.0341 5.68504C13.1186 5.78356 13.1615 5.91108 13.1537 6.04063C13.1459 6.17019 13.088 6.29163 12.9923 6.37929L8.32561 10.3793C8.235 10.4569 8.11961 10.4996 8.00028 10.4996C7.88095 10.4996 7.76556 10.4569 7.67495 10.3793L3.00828 6.37929C2.90774 6.29297 2.84557 6.17026 2.83545 6.03813C2.82532 5.906 2.86806 5.77526 2.95428 5.67462" fill="#262D3D"/>
</svg>
