<svg width="100%" height="100%" style="overflow:visible;" preserveAspectRatio="none" viewBox="0 0 20 20" fill="none" xmlns="http://www.w3.org/2000/svg">
<path fill-rule="evenodd" clip-rule="evenodd" d="M10.9213 18.3346H9.07798C6.20548 18.3346 4.76965 18.3346 3.79048 17.4913C2.81131 16.648 2.60798 15.2371 2.20215 12.4138L1.96965 10.7996C1.65298 8.60214 1.49465 7.50297 1.94548 6.5638C2.39631 5.62464 3.35465 5.05297 5.27215 3.9113L6.42631 3.2238C8.16631 2.1863 9.03798 1.66797 9.99965 1.66797C10.9613 1.66797 11.8321 2.1863 13.573 3.2238L14.7271 3.9113C16.6438 5.05297 17.603 5.62464 18.0538 6.5638C18.5046 7.50297 18.3455 8.60214 18.0288 10.7996L17.7971 12.4138C17.3913 15.2371 17.188 16.648 16.2088 17.4913C15.2296 18.3346 13.7938 18.3346 10.9213 18.3346ZM6.99798 12.9621C7.09667 12.829 7.24421 12.7405 7.40814 12.7161C7.57207 12.6917 7.73898 12.7335 7.87215 12.8321C8.47881 13.2821 9.21131 13.543 9.99965 13.543C10.788 13.543 11.5205 13.2821 12.1271 12.8321C12.1931 12.7832 12.268 12.7478 12.3476 12.7278C12.4273 12.7078 12.5101 12.7038 12.5913 12.7158C12.6725 12.7278 12.7505 12.7557 12.821 12.7979C12.8914 12.8401 12.9528 12.8958 13.0017 12.9617C13.0506 13.0277 13.0861 13.1026 13.1061 13.1822C13.126 13.2618 13.1301 13.3446 13.1181 13.4258C13.106 13.5071 13.0781 13.5851 13.0359 13.6555C12.9937 13.726 12.9381 13.7874 12.8721 13.8363C12.0426 14.4562 11.0352 14.7917 9.99965 14.793C8.96411 14.7917 7.95665 14.4562 7.12715 13.8363C6.99413 13.7375 6.9058 13.5899 6.88158 13.426C6.85736 13.262 6.89923 13.0952 6.99798 12.9621Z" fill="#EA5329"/>
</svg>
