<svg width="100%" height="100%" style="overflow:visible;" preserveAspectRatio="none" viewBox="0 0 22 22" fill="none" xmlns="http://www.w3.org/2000/svg">
<path d="M21.8554 6.83082C21.8554 4.89723 20.4331 3.34176 18.6757 3.34176C16.2952 3.23047 13.8675 3.1875 11.3865 3.1875H10.6131C8.13805 3.1875 5.70602 3.23047 3.32555 3.34219C1.57243 3.34219 0.150164 4.90625 0.150164 6.83984C0.0427418 8.3691 -0.00280511 9.89879 -0.000226985 11.4285C-0.00452386 12.9582 0.0441741 14.4893 0.145867 16.0218C0.145867 17.9554 1.56813 19.5238 3.32126 19.5238C5.82204 19.6398 8.38727 19.6914 10.9955 19.6871C13.608 19.6957 16.166 19.6412 18.6697 19.5238C20.4271 19.5238 21.8494 17.9554 21.8494 16.0218C21.9525 14.4879 21.9998 12.9582 21.9955 11.4242C22.0052 9.89449 21.9585 8.36337 21.8554 6.83082ZM8.8943 15.6437V7.20035L15.1248 11.4199L8.8943 15.6437Z" fill="white"/>
</svg>
