<svg width="100%" height="100%" style="overflow:visible;" preserveAspectRatio="none" viewBox="0 0 22 22" fill="none" xmlns="http://www.w3.org/2000/svg">
<path d="M17.7111 5.53617C17.5719 5.46422 17.4364 5.38535 17.305 5.29984C16.9232 5.04738 16.573 4.74991 16.2622 4.41383C15.4845 3.52395 15.194 2.62117 15.087 1.9891H15.0913C15.0019 1.46445 15.0389 1.125 15.0445 1.125H11.5021V14.8226C11.5021 15.0065 11.5021 15.1882 11.4944 15.3679C11.4944 15.3902 11.4922 15.4108 11.4909 15.4349C11.4909 15.4448 11.4909 15.4551 11.4888 15.4654V15.4731C11.4515 15.9646 11.2939 16.4394 11.03 16.8556C10.7661 17.2719 10.404 17.617 9.97544 17.8605C9.5288 18.1146 9.02364 18.2479 8.50978 18.2472C6.85935 18.2472 5.52173 16.9014 5.52173 15.2394C5.52173 13.5773 6.85935 12.2316 8.50978 12.2316C8.82219 12.2313 9.13269 12.2804 9.42974 12.3772L9.43403 8.77043C8.53227 8.65395 7.61616 8.72561 6.74349 8.98091C5.87081 9.2362 5.06052 9.66958 4.36372 10.2537C3.75316 10.7842 3.23986 11.4172 2.84692 12.1241C2.69739 12.382 2.13321 13.4179 2.06489 15.0993C2.02192 16.0536 2.30852 17.0423 2.44517 17.451V17.4596C2.5311 17.7002 2.86411 18.5213 3.40681 19.2136C3.84442 19.7688 4.36144 20.2566 4.94122 20.6612V20.6526L4.94981 20.6612C6.6647 21.8265 8.56606 21.75 8.56606 21.75C8.8952 21.7367 9.99778 21.75 11.2499 21.1566C12.6386 20.4988 13.4293 19.5186 13.4293 19.5186C13.9344 18.933 14.336 18.2656 14.6169 17.5451C14.9375 16.7025 15.0445 15.6918 15.0445 15.2879V8.02105C15.0874 8.04684 15.6598 8.42539 15.6598 8.42539C15.6598 8.42539 16.4843 8.95391 17.7708 9.29809C18.6938 9.54301 19.9373 9.59457 19.9373 9.59457V6.07801C19.5016 6.12527 18.6169 5.98777 17.7111 5.53617Z" fill="white"/>
</svg>
