<svg width="100%" height="100%" style="overflow:visible;" preserveAspectRatio="none" viewBox="0 0 24 24" fill="none" xmlns="http://www.w3.org/2000/svg">
<path opacity="0.6" d="M15 2H14C11.172 2 9.757 2 8.879 2.879C8 3.757 8 5.172 8 8V16C8 18.828 8 20.243 8.879 21.121C9.757 22 11.172 22 14 22H15C17.828 22 19.243 22 20.121 21.121C21 20.243 21 18.828 21 16V8C21 5.172 21 3.757 20.121 2.879C19.243 2 17.828 2 15 2Z" fill="#00277F"/>
<path opacity="0.4" d="M8 8C8 6.462 8 5.343 8.141 4.5H8C5.643 4.5 4.464 4.5 3.732 5.232C3 5.964 3 7.143 3 9.5V14.5C3 16.857 3 18.035 3.732 18.768C4.464 19.501 5.643 19.5 8 19.5H8.141C8 18.657 8 17.538 8 16V8Z" fill="#00277F"/>
<path fill-rule="evenodd" clip-rule="evenodd" d="M14.53 11.4692C14.6705 11.6098 14.7493 11.8004 14.7493 11.9992C14.7493 12.1979 14.6705 12.3886 14.53 12.5292L12.53 14.5292C12.4613 14.6029 12.3785 14.662 12.2865 14.703C12.1945 14.744 12.0952 14.766 11.9945 14.7678C11.8938 14.7695 11.7938 14.751 11.7004 14.7133C11.607 14.6756 11.5222 14.6194 11.451 14.5482C11.3797 14.477 11.3236 14.3922 11.2859 14.2988C11.2482 14.2054 11.2296 14.1054 11.2314 14.0047C11.2332 13.904 11.2552 13.8046 11.2962 13.7126C11.3372 13.6206 11.3963 13.5378 11.47 13.4692L12.19 12.7492H5C4.80109 12.7492 4.61032 12.6702 4.46967 12.5295C4.32902 12.3889 4.25 12.1981 4.25 11.9992C4.25 11.8003 4.32902 11.6095 4.46967 11.4688C4.61032 11.3282 4.80109 11.2492 5 11.2492H12.19L11.47 10.5292C11.3963 10.4605 11.3372 10.3777 11.2962 10.2857C11.2552 10.1937 11.2332 10.0944 11.2314 9.9937C11.2296 9.893 11.2482 9.79297 11.2859 9.69958C11.3236 9.60619 11.3797 9.52136 11.451 9.45014C11.5222 9.37892 11.607 9.32278 11.7004 9.28505C11.7938 9.24733 11.8938 9.22881 11.9945 9.23059C12.0952 9.23236 12.1945 9.2544 12.2865 9.2954C12.3785 9.33639 12.4613 9.39549 12.53 9.46918L14.53 11.4692Z" fill="#00277F"/>
</svg>
