<svg width="100%" height="100%" style="overflow:visible;" preserveAspectRatio="none" viewBox="0 0 48 48" fill="none" xmlns="http://www.w3.org/2000/svg">
<path fill-rule="evenodd" clip-rule="evenodd" d="M34.384 12.5H13.616C10.24 12.5 8.554 12.5 7.266 13.16C6.14545 13.7338 5.23376 14.6455 4.66 15.766C4 17.054 4 18.74 4 22.116C4 22.974 4 23.402 4.146 23.764C4.27386 24.0801 4.4804 24.3582 4.746 24.572C5.052 24.816 5.462 24.938 6.286 25.186L17 28.4V30.826C17 32.356 17.92 33.768 19.374 34.36L20.494 34.814C22.7418 35.7289 25.2582 35.7289 27.506 34.814L28.626 34.36C29.3277 34.073 29.9282 33.5837 30.351 32.9544C30.7737 32.325 30.9997 31.5841 31 30.826V28.4L41.716 25.186C42.536 24.938 42.948 24.816 43.252 24.572C43.5176 24.3582 43.7241 24.0801 43.852 23.764C44 23.404 44 22.974 44 22.116C44 18.74 44 17.054 43.34 15.766C42.7662 14.6455 41.8545 13.7338 40.734 13.16C39.446 12.5 37.76 12.5 34.384 12.5ZM27.2 26.5H20.8C20.36 26.5 20 26.864 20 27.312V30.826C20 31.158 20.2 31.456 20.502 31.58L21.622 32.036C23.15 32.656 24.85 32.656 26.376 32.036L27.496 31.58C27.6449 31.5178 27.7721 31.4131 27.8617 31.279C27.9514 31.1449 27.9995 30.9873 28 30.826V27.312C28.0008 27.2062 27.9807 27.1012 27.9409 27.0031C27.9012 26.905 27.8425 26.8157 27.7682 26.7403C27.6939 26.6649 27.6055 26.6049 27.508 26.5636C27.4105 26.5224 27.3058 26.5008 27.2 26.5Z" fill="#EA5329"/>
<path opacity="0.5" d="M41.916 25.1237L41.848 25.1437L31 28.3977V30.8237C31 32.3537 30.08 33.7657 28.626 34.3577L27.506 34.8117C25.2582 35.7266 22.7418 35.7266 20.494 34.8117L19.374 34.3577C18.6723 34.0707 18.0718 33.5814 17.649 32.952C17.2263 32.3227 17.0003 31.5818 17 30.8237V28.3977L6 25.0977C6 32.4477 6.07 39.8737 8.636 42.1537C11.272 44.4977 15.516 44.4977 24 44.4977C32.484 44.4977 36.728 44.4977 39.364 42.1537C41.93 39.8737 41.998 32.4477 42 25.0977L41.916 25.1237Z" fill="#EA5329"/>
<path opacity="0.5" d="M18.3398 8.49709C18.753 7.32602 19.5193 6.31196 20.533 5.59467C21.5468 4.87738 22.758 4.49219 23.9998 4.49219C25.2417 4.49219 26.4529 4.87738 27.4666 5.59467C28.4804 6.31196 29.2466 7.32602 29.6598 8.49709" stroke="#EA5329" stroke-width="1.5" stroke-linecap="round"/>
</svg>
