<svg width="100%" height="100%" style="overflow:visible;" preserveAspectRatio="none" viewBox="0 0 48 48" fill="none" xmlns="http://www.w3.org/2000/svg">
<path opacity="0.5" fill-rule="evenodd" clip-rule="evenodd" d="M20 44.5H28C35.542 44.5 39.314 44.5 41.656 42.156C43.998 39.812 44 36.042 44 28.5V27.626C44 25.88 44 24.568 43.914 23.5H35.81C33.616 23.5 31.676 23.5 30.114 23.29C28.42 23.062 26.726 22.54 25.344 21.158C23.96 19.774 23.438 18.08 23.21 16.386C23 14.824 23 12.886 23 10.69L23.02 5.022C23.02 4.85667 23.0333 4.694 23.06 4.534C22.242 4.5 21.272 4.5 20.06 4.5C12.478 4.5 8.686 4.5 6.344 6.844C4 9.186 4 12.958 4 20.5V28.5C4 36.042 4 39.814 6.344 42.156C8.688 44.498 12.458 44.5 20 44.5Z" fill="#EA5329"/>
<path d="M18.026 38.5957C17.748 38.8564 17.3811 39.0015 17 39.0015C16.6189 39.0015 16.252 38.8564 15.974 38.5957L11.974 34.8457C11.6906 34.572 11.5263 34.1978 11.5166 33.8039C11.5068 33.41 11.6525 33.0281 11.922 32.7407C12.1915 32.4533 12.5633 32.2835 12.957 32.268C13.3507 32.2525 13.7347 32.3925 14.026 32.6577L15.5 34.0377V27.5017C15.5 27.1039 15.658 26.7224 15.9393 26.4411C16.2206 26.1598 16.6022 26.0017 17 26.0017C17.3978 26.0017 17.7794 26.1598 18.0607 26.4411C18.342 26.7224 18.5 27.1039 18.5 27.5017V34.0397L19.974 32.6577C20.2653 32.3925 20.6493 32.2525 21.043 32.268C21.4367 32.2835 21.8085 32.4533 22.078 32.7407C22.3475 33.0281 22.4932 33.41 22.4834 33.8039C22.4737 34.1978 22.3094 34.572 22.026 34.8457L18.026 38.5957ZM23.02 5.02172L23 10.6917C23 12.8857 23 14.8237 23.21 16.3877C23.438 18.0817 23.96 19.7757 25.344 21.1577C26.724 22.5397 28.42 23.0637 30.114 23.2917C31.676 23.5017 33.616 23.5017 35.81 23.5017H43.914C43.9407 23.8111 43.9593 24.1444 43.97 24.5017H44C44 23.9657 44 23.6977 43.98 23.3817C43.8281 21.4808 43.1662 19.656 42.064 18.0997C41.876 17.8437 41.748 17.6917 41.494 17.3857C39.908 15.4897 37.82 13.1257 36 11.5017C34.38 10.0537 32.158 8.47172 30.22 7.17972C28.556 6.06772 27.724 5.51172 26.582 5.09972C26.2494 4.98223 25.9117 4.87946 25.57 4.79172C24.802 4.60172 24.054 4.53572 23 4.51172L23.02 5.02172Z" fill="#EA5329"/>
</svg>
