<svg width="100%" height="100%" style="overflow:visible;" preserveAspectRatio="none" viewBox="0 0 24 24" fill="none" xmlns="http://www.w3.org/2000/svg">
<path opacity="0.5" d="M14.2 3H9.8C5.652 3 3.577 3 2.289 4.318C1.001 5.636 1 7.758 1 12C1 16.242 1 18.364 2.289 19.682C3.578 21 5.652 21 9.8 21H14.2C18.348 21 20.423 21 21.711 19.682C22.999 18.364 23 16.242 23 12C23 7.758 23 5.636 21.711 4.318C20.422 3 18.348 3 14.2 3Z" fill="#767676"/>
<path d="M19.1283 8.03329C19.2964 7.89326 19.402 7.69216 19.4219 7.47424C19.4418 7.25633 19.3743 7.03944 19.2343 6.87129C19.0942 6.70314 18.8931 6.59751 18.6752 6.57763C18.4573 6.55775 18.2404 6.62526 18.0723 6.76529L15.6973 8.74529C14.6713 9.60029 13.9593 10.1923 13.3573 10.5783C12.7753 10.9533 12.3803 11.0783 12.0003 11.0783C11.6203 11.0783 11.2263 10.9533 10.6433 10.5783C10.0423 10.1923 9.32927 9.60029 8.30327 8.74429L5.92827 6.76529C5.76012 6.62526 5.54323 6.55775 5.32531 6.57763C5.1074 6.59751 4.9063 6.70314 4.76627 6.87129C4.62623 7.03944 4.55873 7.25633 4.57861 7.47424C4.59849 7.69216 4.70412 7.89326 4.87227 8.03329L7.28827 10.0473C8.26327 10.8593 9.05327 11.5173 9.75127 11.9673C10.4773 12.4333 11.1853 12.7293 12.0013 12.7293C12.8153 12.7293 13.5233 12.4333 14.2503 11.9663C14.9473 11.5183 15.7373 10.8593 16.7123 10.0463L19.1283 8.03329Z" fill="#767676"/>
</svg>
