<svg width="100%" height="100%" style="overflow:visible;" preserveAspectRatio="none" viewBox="0 0 48 48" fill="none" xmlns="http://www.w3.org/2000/svg">
<path fill-rule="evenodd" clip-rule="evenodd" d="M44 30.5V36.5C44 40.272 44 42.156 42.828 43.328C41.656 44.5 39.772 44.5 36 44.5C32.228 44.5 30.344 44.5 29.172 43.328C28 42.156 28 40.272 28 36.5V30.5C28 26.728 28 24.844 29.172 23.672C30.344 22.5 32.228 22.5 36 22.5C39.772 22.5 41.656 22.5 42.828 23.672C44 24.844 44 26.728 44 30.5ZM32.5 40.5C32.5 40.1022 32.658 39.7206 32.9393 39.4393C33.2206 39.158 33.6022 39 34 39H38C38.3978 39 38.7794 39.158 39.0607 39.4393C39.342 39.7206 39.5 40.1022 39.5 40.5C39.5 40.8978 39.342 41.2794 39.0607 41.5607C38.7794 41.842 38.3978 42 38 42H34C33.6022 42 33.2206 41.842 32.9393 41.5607C32.658 41.2794 32.5 40.8978 32.5 40.5Z" fill="#EA5329"/>
<path d="M16 34.5C10.342 34.5 7.514 34.5 5.756 32.742C4.618 31.604 4.142 30.016 4 27.5V26.5H25.032V27.5C25 28.374 25 29.324 25 30.32V36.68C25 38.41 25 39.998 25.172 41.288C25.364 42.71 25.812 44.214 27.05 45.448L27.1 45.5H16C15.6022 45.5 15.2206 45.342 14.9393 45.0607C14.658 44.7794 14.5 44.3978 14.5 44C14.5 43.6022 14.658 43.2206 14.9393 42.9393C15.2206 42.658 15.6022 42.5 16 42.5H22.5V34.5H16Z" fill="#EA5329"/>
<path opacity="0.5" d="M19.9999 4.5H27.9999C35.5419 4.5 39.3139 4.5 41.6559 6.844C43.9979 9.188 43.9999 12.958 43.9999 20.5V20.776C42.9839 20.11 41.8619 19.816 40.7879 19.674C39.4999 19.5 37.9099 19.5 36.1799 19.5H35.8199C34.0899 19.5 32.5019 19.5 31.2119 19.674C29.7899 19.864 28.2859 20.314 27.0519 21.55C25.8759 22.726 25.4119 24.142 25.2039 25.5V26.5H3.99987V25.5C3.98587 24.6 3.99987 23.604 3.99987 22.5V20.5C3.99987 12.958 3.99987 9.186 6.34387 6.844C8.68787 4.502 12.4579 4.5 19.9999 4.5Z" fill="#EA5329"/>
</svg>
