<svg width="100%" height="100%" style="overflow:visible;" preserveAspectRatio="none" viewBox="0 0 16 16" fill="none" xmlns="http://www.w3.org/2000/svg">
<path d="M6.98047 0.777322C7.07808 0.895934 7.13788 1.04109 7.15214 1.19404C7.16641 1.347 7.13447 1.50071 7.06047 1.63532C6.48233 2.6968 6.1804 3.88662 6.18247 5.09532C6.18247 9.11632 9.46047 12.3723 13.5005 12.3723C14.0275 12.3723 14.5405 12.3173 15.0335 12.2123C15.1846 12.1796 15.342 12.1921 15.4861 12.2483C15.6301 12.3045 15.7544 12.4019 15.8435 12.5283C15.9375 12.6598 15.9854 12.8186 15.9798 12.9801C15.9742 13.1416 15.9153 13.2967 15.8125 13.4213C15.0282 14.3848 14.0387 15.161 12.9163 15.6935C11.7939 16.226 10.5668 16.5013 9.32447 16.4993C4.71447 16.4993 0.980469 12.7853 0.980469 8.20932C0.980469 4.76532 3.09447 1.81132 6.10447 0.559322C6.25441 0.495954 6.42086 0.482948 6.57882 0.522258C6.73678 0.561567 6.87772 0.651071 6.98047 0.777322ZM5.83847 1.81032C4.68107 2.43115 3.71351 3.35396 3.0386 4.48068C2.36369 5.6074 2.00667 6.89593 2.00547 8.20932C2.00547 12.2293 5.28447 15.4853 9.32447 15.4853C10.2919 15.487 11.2501 15.2968 12.1435 14.9257C13.037 14.5546 13.8479 14.0099 14.5295 13.3233C14.1925 13.3653 13.8495 13.3863 13.5005 13.3863C8.89047 13.3863 5.15747 9.67232 5.15747 5.09632C5.15747 3.92932 5.39947 2.81832 5.83847 1.81032Z" fill="#48525C"/>
</svg>
