<svg width="100%" height="100%" style="overflow:visible;" preserveAspectRatio="none" viewBox="0 0 22 22" fill="none" xmlns="http://www.w3.org/2000/svg">
<path d="M21.8559 6.83473C21.8559 4.90113 20.4336 3.34566 18.6762 3.34566C16.2957 3.23437 13.868 3.19141 11.387 3.19141H10.6135C8.13854 3.19141 5.70651 3.23437 3.32604 3.34609C1.57292 3.34609 0.150652 4.91016 0.150652 6.84375C0.04323 8.37301 -0.00231683 9.9027 0.000261296 11.4324C-0.00403558 12.9621 0.0446623 14.4932 0.146355 16.0257C0.146355 17.9593 1.56862 19.5277 3.32175 19.5277C5.82253 19.6437 8.38776 19.6953 10.996 19.691C13.6085 19.6996 16.1665 19.6451 18.6702 19.5277C20.4276 19.5277 21.8499 17.9593 21.8499 16.0257C21.953 14.4918 22.0003 12.9621 21.996 11.4281C22.0057 9.8984 21.959 8.36728 21.8559 6.83473ZM8.89479 15.6476V7.20426L15.1253 11.4238L8.89479 15.6476Z" fill="white"/>
</svg>
