<svg width="100%" height="100%" style="overflow:visible;" preserveAspectRatio="none" viewBox="0 0 22 22" fill="none" xmlns="http://www.w3.org/2000/svg">
<path d="M21.3125 5.14649C20.5388 5.48266 19.7202 5.70413 18.8826 5.80391C19.7629 5.28845 20.4249 4.46955 20.7445 3.50079C19.9122 3.98745 19.0032 4.32891 18.0563 4.51055C17.6576 4.0927 17.1781 3.76028 16.6469 3.53351C16.1157 3.30674 15.544 3.19035 14.9664 3.19141C12.6281 3.19141 10.7357 5.05626 10.7357 7.35508C10.7341 7.67484 10.7707 7.99365 10.8449 8.30469C9.16811 8.22609 7.5262 7.79834 6.02421 7.04883C4.52222 6.29931 3.19322 5.24453 2.12223 3.95196C1.7465 4.58537 1.54779 5.30807 1.54688 6.04454C1.54688 7.48829 2.30012 8.76446 3.4375 9.51212C2.76363 9.49612 2.10357 9.31777 1.51336 8.99219V9.04376C1.51336 11.0633 2.9743 12.7434 4.90789 13.1258C4.54428 13.2227 4.16959 13.2718 3.79328 13.2719C3.52626 13.2723 3.25985 13.2464 2.99793 13.1945C3.53547 14.8488 5.09996 16.052 6.9532 16.0863C5.44731 17.2469 3.59847 17.8742 1.69727 17.8695C1.3598 17.869 1.02264 17.849 0.6875 17.8094C2.6216 19.0444 4.86984 19.6977 7.16461 19.6914C14.9574 19.6914 19.2148 13.3449 19.2148 7.84063C19.2148 7.66016 19.21 7.47969 19.2014 7.30352C20.0278 6.71574 20.7426 5.98529 21.3125 5.14649Z" fill="white"/>
</svg>
