<svg width="100%" height="100%" style="overflow:visible;" preserveAspectRatio="none" viewBox="0 0 22 22" fill="none" xmlns="http://www.w3.org/2000/svg">
<path d="M17.7111 5.54008C17.5719 5.46813 17.4364 5.38925 17.305 5.30375C16.9232 5.05129 16.573 4.75381 16.2622 4.41773C15.4845 3.52785 15.194 2.62508 15.087 1.99301H15.0913C15.0019 1.46836 15.0389 1.12891 15.0445 1.12891H11.5021V14.8265C11.5021 15.0104 11.5021 15.1921 11.4944 15.3718C11.4944 15.3941 11.4922 15.4147 11.4909 15.4388C11.4909 15.4487 11.4909 15.459 11.4888 15.4693V15.477C11.4515 15.9685 11.2939 16.4433 11.03 16.8595C10.7661 17.2758 10.404 17.6209 9.97544 17.8644C9.5288 18.1185 9.02364 18.2518 8.50978 18.2511C6.85935 18.2511 5.52173 16.9053 5.52173 15.2433C5.52173 13.5813 6.85935 12.2355 8.50978 12.2355C8.82219 12.2352 9.13269 12.2843 9.42974 12.3811L9.43403 8.77434C8.53227 8.65785 7.61616 8.72952 6.74349 8.98481C5.87081 9.24011 5.06052 9.67349 4.36372 10.2576C3.75316 10.7881 3.23986 11.4211 2.84692 12.128C2.69739 12.3859 2.13321 13.4218 2.06489 15.1032C2.02192 16.0575 2.30852 17.0463 2.44517 17.4549V17.4635C2.5311 17.7041 2.86411 18.5252 3.40681 19.2175C3.84442 19.7727 4.36144 20.2605 4.94122 20.6651V20.6565L4.94981 20.6651C6.6647 21.8304 8.56606 21.7539 8.56606 21.7539C8.8952 21.7406 9.99778 21.7539 11.2499 21.1605C12.6386 20.5027 13.4293 19.5225 13.4293 19.5225C13.9344 18.9369 14.336 18.2695 14.6169 17.549C14.9375 16.7064 15.0445 15.6957 15.0445 15.2918V8.02496C15.0874 8.05074 15.6598 8.4293 15.6598 8.4293C15.6598 8.4293 16.4843 8.95781 17.7708 9.30199C18.6938 9.54691 19.9373 9.59848 19.9373 9.59848V6.08191C19.5016 6.12918 18.6169 5.99168 17.7111 5.54008Z" fill="white"/>
</svg>
