<svg width="100%" height="100%" style="overflow:visible;" preserveAspectRatio="none" viewBox="0 0 20 20" fill="none" xmlns="http://www.w3.org/2000/svg">
<path d="M9.6168 3C8.40315 3 7.21675 3.35989 6.20764 4.03416C5.19852 4.70843 4.41202 5.66679 3.94757 6.78806C3.48313 7.90932 3.36161 9.14314 3.59838 10.3335C3.83515 11.5238 4.41958 12.6172 5.27776 13.4754C6.13594 14.3335 7.22933 14.918 8.41966 15.1547C9.60999 15.3915 10.8438 15.27 11.9651 14.8056C13.0863 14.3411 14.0447 13.5546 14.719 12.5455C15.3932 11.5364 15.7531 10.35 15.7531 9.13633C15.753 7.5089 15.1065 5.94817 13.9557 4.7974C12.805 3.64664 11.2442 3.0001 9.6168 3Z" stroke="#48525C" stroke-width="1.25" stroke-miterlimit="10" stroke-linecap="round" stroke-linejoin="round"/>
<path d="M14.1953 13.7148L18.4809 18.0004" stroke="#48525C" stroke-width="1.25" stroke-miterlimit="10" stroke-linecap="round" stroke-linejoin="round"/>
</svg>
