<svg width="100%" height="100%" style="overflow:visible;" preserveAspectRatio="none" viewBox="0 0 7.36 11" fill="none" xmlns="http://www.w3.org/2000/svg">
<path d="M5.1001 1C5.1001 0.723858 4.87624 0.5 4.6001 0.5C4.32396 0.5 4.1001 0.723858 4.1001 1H5.1001ZM4.24654 11.3536C4.44181 11.5488 4.75839 11.5488 4.95365 11.3536L8.13563 8.17157C8.33089 7.97631 8.33089 7.65973 8.13563 7.46447C7.94037 7.2692 7.62379 7.2692 7.42852 7.46447L4.6001 10.2929L1.77167 7.46447C1.57641 7.2692 1.25983 7.2692 1.06456 7.46447C0.869302 7.65973 0.869302 7.97631 1.06456 8.17157L4.24654 11.3536ZM4.1001 1V11H5.1001V1H4.1001Z" fill="#EA5329"/>
</svg>
