<svg width="100%" height="100%" style="overflow:visible;" preserveAspectRatio="none" viewBox="0 0 7.36 11" fill="none" xmlns="http://www.w3.org/2000/svg">
<path d="M4.30005 1C4.30005 0.723858 4.07619 0.5 3.80005 0.5C3.52391 0.5 3.30005 0.723858 3.30005 1H4.30005ZM3.4465 11.3536C3.64176 11.5488 3.95834 11.5488 4.1536 11.3536L7.33558 8.17157C7.53084 7.97631 7.53084 7.65973 7.33558 7.46447C7.14032 7.2692 6.82374 7.2692 6.62848 7.46447L3.80005 10.2929L0.971622 7.46447C0.77636 7.2692 0.459777 7.2692 0.264515 7.46447C0.0692528 7.65973 0.0692528 7.97631 0.264515 8.17157L3.4465 11.3536ZM3.30005 1V11H4.30005V1H3.30005Z" fill="#EA5329"/>
</svg>
