<svg width="100%" height="100%" style="overflow:visible;" preserveAspectRatio="none" viewBox="0 0 7.36 11" fill="none" xmlns="http://www.w3.org/2000/svg">
<path d="M4.69995 1C4.69995 0.723858 4.47609 0.5 4.19995 0.5C3.92381 0.5 3.69995 0.723858 3.69995 1H4.69995ZM3.8464 11.3536C4.04166 11.5488 4.35824 11.5488 4.5535 11.3536L7.73549 8.17157C7.93075 7.97631 7.93075 7.65973 7.73549 7.46447C7.54022 7.2692 7.22364 7.2692 7.02838 7.46447L4.19995 10.2929L1.37152 7.46447C1.17626 7.2692 0.859679 7.2692 0.664417 7.46447C0.469155 7.65973 0.469155 7.97631 0.664417 8.17157L3.8464 11.3536ZM3.69995 1V11H4.69995V1H3.69995Z" fill="#EA5329"/>
</svg>
