<svg width="100%" height="100%" style="overflow:visible;" preserveAspectRatio="none" viewBox="0 0 7.36 11" fill="none" xmlns="http://www.w3.org/2000/svg">
<path d="M4.8999 1C4.8999 0.723858 4.67604 0.5 4.3999 0.5C4.12376 0.5 3.8999 0.723858 3.8999 1H4.8999ZM4.04635 11.3536C4.24161 11.5488 4.55819 11.5488 4.75346 11.3536L7.93544 8.17157C8.1307 7.97631 8.1307 7.65973 7.93544 7.46447C7.74017 7.2692 7.42359 7.2692 7.22833 7.46447L4.3999 10.2929L1.57148 7.46447C1.37621 7.2692 1.05963 7.2692 0.864368 7.46447C0.669106 7.65973 0.669106 7.97631 0.864368 8.17157L4.04635 11.3536ZM3.8999 1V11H4.8999V1H3.8999Z" fill="#EA5329"/>
</svg>
