<svg width="100%" height="100%" style="overflow:visible;" preserveAspectRatio="none" viewBox="0 0 24 24" fill="none" xmlns="http://www.w3.org/2000/svg">
<path fill-rule="evenodd" clip-rule="evenodd" d="M13.1057 22H10.8937C7.44667 22 5.72367 22 4.54867 20.988C3.37367 19.976 3.12967 18.283 2.64267 14.895L2.36367 12.958C1.98367 10.321 1.79367 9.002 2.33467 7.875C2.87567 6.748 4.02567 6.062 6.32667 4.692L7.71167 3.867C9.79967 2.622 10.8457 2 11.9997 2C13.1537 2 14.1987 2.622 16.2877 3.867L17.6727 4.692C19.9727 6.062 21.1237 6.748 21.6647 7.875C22.2057 9.002 22.0147 10.321 21.6347 12.958L21.3567 14.895C20.8697 18.283 20.6257 19.976 19.4507 20.988C18.2757 22 16.5527 22 13.1057 22ZM8.39767 15.553C8.51611 15.3932 8.69315 15.287 8.88987 15.2578C9.08659 15.2285 9.28687 15.2786 9.44667 15.397C10.1747 15.937 11.0537 16.25 11.9997 16.25C12.9457 16.25 13.8247 15.937 14.5527 15.397C14.6318 15.3383 14.7217 15.2958 14.8173 15.2718C14.9128 15.2478 15.0122 15.243 15.1096 15.2574C15.2071 15.2718 15.3007 15.3053 15.3853 15.356C15.4698 15.4066 15.5435 15.4734 15.6022 15.5525C15.6609 15.6316 15.7034 15.7215 15.7274 15.8171C15.7513 15.9127 15.7562 16.012 15.7418 16.1095C15.7273 16.2069 15.6938 16.3006 15.6432 16.3851C15.5926 16.4696 15.5258 16.5433 15.4467 16.602C14.4513 17.3459 13.2423 17.7485 11.9997 17.75C10.757 17.7485 9.54808 17.3459 8.55267 16.602C8.39306 16.4834 8.28706 16.3063 8.258 16.1096C8.22893 15.9129 8.27917 15.7127 8.39767 15.553Z" fill="#EA5329"/>
</svg>
