<svg width="100%" height="100%" style="overflow:visible;" preserveAspectRatio="none" viewBox="0 0 24 24" fill="none" xmlns="http://www.w3.org/2000/svg">
<path fill-rule="evenodd" clip-rule="evenodd" d="M11.9997 2.75073C11.0217 2.75073 10.1867 3.37573 9.87771 4.25073C9.80907 4.43516 9.67071 4.58522 9.49244 4.66856C9.31418 4.75191 9.1103 4.76185 8.92477 4.69624C8.73925 4.63064 8.58693 4.49475 8.50068 4.31787C8.41443 4.141 8.40115 3.93731 8.46371 3.75073C8.72226 3.01939 9.20119 2.3862 9.83454 1.93834C10.4679 1.49049 11.2245 1.25 12.0002 1.25C12.7759 1.25 13.5325 1.49049 14.1659 1.93834C14.7992 2.3862 15.2782 3.01939 15.5367 3.75073C15.5695 3.84364 15.5837 3.94211 15.5785 4.04051C15.5733 4.13891 15.5487 4.23532 15.5063 4.32423C15.4638 4.41315 15.4042 4.49282 15.3309 4.55871C15.2577 4.62459 15.1721 4.6754 15.0792 4.70823C14.9863 4.74106 14.8878 4.75527 14.7894 4.75005C14.691 4.74482 14.5946 4.72027 14.5057 4.67779C14.4168 4.6353 14.3371 4.57573 14.2712 4.50245C14.2053 4.42918 14.1545 4.34364 14.1217 4.25073C13.9666 3.81195 13.6792 3.43206 13.2991 3.16342C12.9191 2.89478 12.4651 2.75059 11.9997 2.75073Z" fill="#767676"/>
<path d="M14 12.5H10C9.86739 12.5 9.74021 12.5527 9.64645 12.6464C9.55268 12.7402 9.5 12.8674 9.5 13V15.162C9.50002 15.2619 9.52994 15.3594 9.58591 15.4421C9.64187 15.5248 9.72131 15.5889 9.814 15.626L10.514 15.906C11.4679 16.2877 12.5321 16.2877 13.486 15.906L14.186 15.626C14.2787 15.5889 14.3581 15.5248 14.4141 15.4421C14.4701 15.3594 14.5 15.2619 14.5 15.162V13C14.5 12.8674 14.4473 12.7402 14.3536 12.6464C14.2598 12.5527 14.1326 12.5 14 12.5Z" fill="#767676"/>
<path d="M8.01 15.37L3.006 13.868C3.036 16.982 3.218 19.851 4.318 20.828C5.636 22 7.758 22 12 22C16.242 22 18.364 22 19.682 20.828C20.782 19.851 20.964 16.982 20.994 13.868L15.989 15.369C15.9513 15.7314 15.8154 16.0767 15.5958 16.3675C15.3762 16.6583 15.0813 16.8836 14.743 17.019L14.043 17.299C12.7315 17.8237 11.2685 17.8237 9.957 17.299L9.257 17.019C8.9187 16.8836 8.62383 16.6583 8.40424 16.3675C8.18464 16.0767 8.04867 15.7314 8.011 15.369M7.609 5H16.391C18.841 5 20.066 5 20.893 5.673C21.053 5.803 21.1977 5.94767 21.327 6.107C22 6.934 22 8.159 22 10.609C22 11.231 22 11.541 21.85 11.784C21.8205 11.8314 21.787 11.8762 21.75 11.918C21.56 12.132 21.263 12.221 20.668 12.4L16 13.8V13C16 12.4696 15.7893 11.9609 15.4142 11.5858C15.0391 11.2107 14.5304 11 14 11H10C9.46957 11 8.96086 11.2107 8.58579 11.5858C8.21071 11.9609 8 12.4696 8 13V13.8L3.332 12.4C2.737 12.221 2.439 12.132 2.25 11.918C2.21298 11.8762 2.17953 11.8314 2.15 11.784C2 11.541 2 11.231 2 10.609C2 8.159 2 6.934 2.673 6.107C2.803 5.947 2.94767 5.80233 3.107 5.673C3.934 5 5.159 5 7.609 5Z" fill="#767676"/>
</svg>
